<?xml version="1.0" encoding="UTF-8" standalone="no"?><!DOCTYPE svg PUBLIC "-//W3C//DTD SVG 1.1//EN" "http://www.w3.org/Graphics/SVG/1.1/DTD/svg11.dtd"><svg width="100%" height="100%" viewBox="0 0 775 768" version="1.1" xmlns="http://www.w3.org/2000/svg" xmlns:xlink="http://www.w3.org/1999/xlink" xml:space="preserve" xmlns:serif="http://www.serif.com/" style="fill-rule:evenodd;clip-rule:evenodd;stroke-linejoin:round;stroke-miterlimit:2;"><g id="Background"><path d="M207.15,250.022c-1.819,0.93 -10.877,5.383 -11.503,5.733c-3.292,1.846 -1.714,2.845 -1.924,9.737c-0.208,6.834 -4.139,32.957 -4.602,34.922c-8.076,34.279 -10.688,38.801 -21.526,58.147c-5.378,9.599 -19.831,26.793 -25.379,30.524c-15.282,10.277 -19.833,4.288 -20.371,3.934c-10.405,-6.835 -2.677,-36.373 1.289,-46.729c0.379,0.558 1.284,0.595 1.663,1.154c0.703,1.035 -9.211,28.83 -2.854,40.812c0.29,0.546 7.313,7.777 6.13,-2.599c-0.793,-6.961 -1.582,-32.148 -1.436,-34.151c0.047,-0.639 0.515,-7.065 -0.042,-8.007c-0.491,-0.829 -1.007,-0.243 -1.454,-1.124c-0.272,-0.536 0.712,-0.336 0.453,-0.847c0.215,-0.778 0.458,-1.656 1.094,-10.028c0.023,-0.307 0.067,-0.885 -2.326,-3.063c1.458,-2.594 1.165,-2.751 1.205,-16.939c0.016,-5.77 1.472,-7.356 -3.97,-9.278c-7.303,-2.578 -7.564,-6.841 -11.37,-20.64c-2.085,-7.558 -0.529,-10.957 -4.508,-22.158c-11.962,-33.672 -9.3,-46.921 -8.485,-50.974c8.517,-42.38 47.583,-54.132 62.037,-64.282c0.802,-0.563 7.718,-4.874 15.325,-10.528c16.401,-12.189 50.558,-46.532 118.895,-67.172c42.314,-12.78 83.925,-15.839 101.007,-16.184c62.003,-1.253 76.167,20.702 79.374,23.825c18.764,18.275 18.142,39.878 30.196,68.581c5.475,13.037 2.079,16.261 6.434,16.204c2.061,-0.027 88.994,-3.218 113.883,22.724c3.526,3.675 8.204,15.574 -7.151,26.482c-10.843,7.702 -27.118,12.155 -29.608,12.836c-3.65,0.998 -0.659,2.542 2.021,13.53c1.948,7.985 7.362,68.821 9.102,139.028c0.085,3.436 1.031,41.61 1.151,42.951c0.335,3.738 13.209,1.237 16.693,3.954c3.342,2.607 5.331,-0.995 8.028,3.052c-0.153,3.896 -0.901,3.638 -2.976,6.188c-1.102,1.354 -10.123,12.445 -6.22,20.914c4.679,10.151 11.057,7.227 12.063,6.766c0.067,0.69 0.134,1.381 0.201,2.071c-3.033,0.842 -3.026,1.158 -3.93,0.725c-1.454,-0.697 -1.464,-0.906 -2.992,-0.303c-4.462,2.204 -7.195,-8.361 -7.911,-9.31c-0.357,-0.472 -1.238,-0.31 -1.595,-0.782c-0.043,0.9 -0.194,4.018 3.036,10.846c1.788,3.779 4.442,3.19 4.95,2.643c0.908,-0.975 0.981,-0.756 2.328,-0.962c3.951,1.356 3.96,0.382 8.025,-0.438c1.987,-0.401 1.679,-0.838 2.777,-2.491c3.928,-7.986 6.762,-9.222 4.799,-11.547c-3.124,-3.701 1.241,-4.821 -1.04,-9.086c-2.963,-5.542 -1.429,-6.16 -4.591,-11.229c-0.921,-0.814 -0.764,-0.956 -1.898,-1.334c-1.755,-0.585 -2.093,-0.599 -2.042,-2.442c7.89,-1.407 6.201,4.632 7.879,5.861c0.691,0.506 5.202,0.1 5.958,9.964c0.248,3.236 -3.297,3.876 -0.833,6.903c4.769,5.857 -3.07,8.759 -3.365,9.99c-0.332,1.388 1.529,4.685 -4.912,8.832c-0.129,0.083 -0.966,0.622 -1.797,0.655c-7.751,0.303 -7.287,2.852 -15.027,3.072c-2.638,0.075 -2.339,1.812 -8.028,2.112c-4.532,0.239 -5.471,-1.281 -6.745,1.503c-0.345,0.755 -1.125,43.176 -1.194,46.931c-1.034,56.231 6.633,101.266 -23.166,114.708c-0.992,0.447 -20.333,5.179 -22.835,5.518c-5.736,0.776 -5.802,-0.353 -72.038,6.781c-11.498,1.238 -145.55,8.096 -168.959,10.425c-3.836,0.382 -3.877,-0.493 -48.08,3.153c-37.951,3.13 -77.457,-3.037 -98.37,-20.121c-20.189,-16.494 -20.458,-61.632 -27.012,-109.411c-1.28,-9.328 -4.315,-40.52 -4.658,-44.047c-0.474,-4.868 -3.167,-32.543 -4.308,-60.988c-0.135,-3.356 -0.26,-3.985 -3.561,-4.332c-2.351,-0.247 -10.398,-1.093 -16.351,-24.611c-4.538,-17.928 4.587,-49.44 12.808,-65.337c0.287,0.678 1.527,0.583 1.813,1.262c0.283,0.67 -2.32,7.292 -2.564,7.911c-1.085,2.76 -8.723,22.189 -8.546,36.072c0.129,10.105 -0.09,10.105 0.037,10.974c0.685,4.714 1.623,11.586 3.771,17.035c4.455,11.302 6.119,14.823 21.038,10.474c10.12,-2.95 8.84,-5.229 15.122,-9.129c5.525,-3.43 4.994,-4.023 9.59,-8.614c19.282,-19.263 38.622,-58.932 44.191,-98.728c2.672,-19.093 3.625,-48.538 3.545,-48.948c-0.31,-1.59 -3.587,0.319 -3.856,0.475Z" style="fill:#2a110a;"/><path d="M256.653,426.446c12.832,34.746 32.397,59.546 66.992,78.799c14.964,8.328 56.558,20.642 64.705,11.078c0.509,-0.597 0.486,-0.547 0.991,-1.115c0.519,0.302 0.626,1.09 1.145,1.392c0.905,0.526 4.492,-2.863 6.64,-7.281c1.964,-4.039 0.261,-14.838 3.834,-7.068c5.185,11.272 6.521,-3.134 6.576,-3.737c0.425,-4.584 1.624,0.58 4.269,5.799c2.905,5.731 2.857,-0.456 2.91,-0.571c2.57,-5.684 2.679,-5.622 2.892,-6.12c0.543,0.287 1.086,0.573 1.629,0.86c-1.204,10.652 2.722,9.58 3.183,8.973c0.845,-1.113 -0.407,-3.865 -0.546,-4.171c-0.285,-0.627 -0.385,-11.113 -4.552,-9.137c-2.249,1.066 -3.682,8.689 -5.01,5.472c-5.932,-14.368 -7.252,1.559 -7.824,1.853c-2.577,1.326 -0.83,-6.245 -6.587,-4.734c-6.488,-4.499 -8.336,-1.134 -14.062,-6.568c-5.914,-5.612 6.295,-3.735 8.642,-3.743c-0.148,0.405 -0.356,0.787 -0.503,1.193c-0.599,1.645 10.61,3.665 24.471,2.408c5.914,-0.536 15.086,-4.633 15.805,-6.598c0.24,-0.656 0.03,-1.423 0.27,-2.079c0.316,-0.146 0.088,-0.482 4.875,-2.249c4.818,-4.287 4.937,-4.072 9.256,-8.787c6.969,4.443 7.174,3.978 14.936,6.941c2.206,0.842 2.466,-0.476 4.574,0.669c0.705,0.383 0.668,0.336 1.493,0.431c1.16,0.134 0.574,2.556 -1.304,1.653c-1.947,-0.937 -2.117,-0.642 -6.195,2.091c-11.771,7.888 -12.689,11.521 -17.619,11.658c-3.279,0.091 -2.648,3.871 -12.051,5.689c-1.368,0.264 -0.829,0.775 -0.401,2.054c0.76,2.27 4.765,1.605 5.412,1.674l1,0.469l1,0.269l1,-0.076l1,-0.813l1,-0.408l1,-0.401l1.196,1.681c-3.447,1.399 -4.553,2.527 -6.046,2.153c-2.588,-0.649 -2.514,-0.949 -5.209,-0.632c-0.342,0.332 -0.685,0.663 -1.027,0.995c-1.607,-0.966 -1.408,-1.151 -1.979,-2.889c-1.202,-3.654 -4.959,-2.566 -3.411,0.28c2.05,3.77 3.899,8.906 6.254,5.501c0.471,-0.681 0.567,-0.468 1.227,-1.013c6,1.383 5.942,0.033 9.028,-1.323c0.408,-0.179 4.585,-0.6 12.108,-5.241c9.007,-5.556 20.273,-12.111 35.347,-29.816c1.321,-1.552 1.712,-1.431 25.458,0.914c4.601,-0.636 4.587,0.534 58.056,-0.208c3.188,-0.044 4.695,-1.265 4.733,1.911c0.026,2.238 -0.189,2.217 -0.039,27.978c0.055,9.404 1.021,17.863 -1.21,27.11c-2.841,11.773 1.237,21.816 -31.492,23.757c-33.966,2.015 -107.12,11.147 -213.985,15.449c-14.572,0.587 -17.1,2.19 -49.004,2.983c-13.608,0.338 -44.882,3.687 -57.028,1.9c-4.574,-0.673 -14.229,-0.342 -20.895,-10.258c-6.976,-10.378 -7.123,-48.049 -11.62,-77.004c-0.219,-1.407 -7.431,-107.097 -6.781,-110.025c0.044,-0.196 27.16,-39.615 28.813,-102.92c0.055,-2.091 0.64,-24.494 1.22,-26.113c1.726,-4.816 18.004,9.684 70.284,9.619c59.431,-0.075 91.476,-29.425 98.013,-29.282c23.666,0.518 104.603,-5.117 141.99,-3.201c14.368,0.736 30.84,-1.739 36.688,7.177c7.816,11.917 5.365,17.255 8.728,50.752c0.425,4.233 0.023,4.193 3.516,53.058c0.263,3.674 -0.238,3.638 2.223,45.984c0.074,1.28 -0.058,1.278 0.568,16.022c0.298,7.01 0.575,6.949 0.794,13.997c0.016,0.504 0.176,5.666 -1.477,6.125c-4.479,1.245 -4.648,-1.632 -58.023,3.105c-4.245,0.377 -1.914,-2.083 -0.945,-6.223c9.561,-40.877 -1.331,-82.115 -21.929,-110.122c-60.713,-82.551 -184.413,-73.542 -231.813,19.268c-7.037,13.778 -10.718,27.012 -12.869,43.886c-3.205,25.132 1.294,43.959 5.694,58.897Z" style="fill:#4b7089;"/><path d="M482.517,425.888c-11.836,1.693 -14.46,4.266 -16.596,1.336c-4.986,-6.841 -14.479,-7.571 -11.34,-3.786c2.49,3.003 0.43,3.289 -2.792,5.493c-46.521,31.813 -108.726,29.119 -106.995,23.577c0.673,-2.153 2.038,-3.299 -0.261,-3.317c-3.82,-0.03 -9.253,10.013 -5.924,10.962c2.152,0.614 2.018,-4.761 6.734,-1.41c26.107,18.545 68.898,26.714 98.05,8.543c0.353,0.54 1.153,0.675 1.506,1.215c0.13,0.2 -0.377,0.438 -0.282,0.657c0.06,0.14 1.871,1.071 2.038,1.157c-4.319,4.715 -4.439,4.5 -9.256,8.787c-4.787,1.767 -4.559,2.103 -4.875,2.249c-9.342,2.245 -13.843,8.236 -40.043,5.076c-2.347,0.008 -14.556,-1.869 -8.642,3.743c5.726,5.434 7.575,2.068 14.062,6.568c-2.552,4.499 -3.452,13.397 -4.413,13.751c-0.126,0.047 -0.12,-0.035 -1.615,-0.473c-0.042,-0.017 -0.348,-0.862 -1.388,-0.568c-2.801,0.79 -1.373,9.024 -17.937,6.72c-5.602,-0.779 -51.555,-4.125 -87.78,-46.885c-59.999,-70.823 -30.991,-183.22 62.833,-212.431c19.459,-6.058 64.948,-12.549 108.649,15.043c53.707,33.909 70.39,95.638 56.942,146.53c-1.076,4.072 -2.493,3.264 -27.728,6.849c-0,0 -2.712,0.565 -2.948,0.614Z" style="fill:#8dabc8;"/><path d="M217.512,109.516c43.823,-36.75 147.029,-62.196 212.056,-51.414c19.328,3.205 27.609,3.775 46.036,25.313c4.047,4.73 11.306,22.583 12.27,27c1.998,9.16 7.936,23.861 5.754,24.328c-0.566,0.121 -5.437,-0.571 -9.194,-0.885c-16.546,-1.153 -16.516,-0.029 -33.111,-0.618c-0.086,0.657 -0.876,1.083 -0.961,1.74c-0.063,0.481 5.648,0.509 6.141,0.511c3.173,0.015 37.522,0.181 39.526,3.285c3.17,4.91 5.609,16.208 5.923,17.665c1.143,5.296 -3.165,1.974 -45.487,7.802c-16.172,2.227 -57.741,10.063 -67.865,12.664c-97.234,24.984 -140.787,47.736 -166.894,60.056c-5.598,2.642 -1.208,-4.743 -5.599,-15.271c-0.289,-0.693 -2.458,-5.891 -7.63,-5.473c-2.891,0.234 -2.778,0.585 -5.042,2.416c-1.814,-0.905 -1.826,-1.349 -3.766,-0.694c-4.136,1.398 -4.619,1.68 -4.987,1.896c-13.728,8.04 -6.448,21.245 -5.539,22.895c0.269,0.487 0.853,8.702 0.907,9.46c-13.638,9.685 -26.085,11.531 -63.074,39.558c-3.616,3.893 -1.73,4.518 -1.803,5.722c-0.154,2.554 -4.633,-1.083 -5.868,-4.901c-4.802,-14.848 -5.658,-23.938 -6.343,-27.157c0.261,-0.201 -0.054,-0.765 0.207,-0.966c0.305,-0.235 0.829,0.125 1.154,-0.083c2.755,-1.761 1.522,-3.436 32.953,-24.174c8.206,-5.415 22.864,-11.904 23.258,-13.687c0.029,-0.129 -0.002,-0.123 -0.025,-1.655c-10.633,4.858 -47.121,24.642 -58.383,38.917c-0.023,-0.072 -0.284,-0.513 -0.44,-1.345c-3.557,-18.931 -14.595,-39.25 -7.889,-58.809c3.06,-8.928 5.399,-12.878 6.017,-13.922c3.48,-5.878 3.695,-5.653 8.511,-10.539c2.573,-5.046 11.624,-12.055 30.049,-22.891c2.312,2.687 1.882,2.982 2.136,3.151c0.722,0.48 0.814,0.119 14.919,-9.017c1.472,-0.953 0.123,-1.645 1.043,-2.923c0.681,-0.946 1.06,-0.37 1.835,-1.269c0,0 -0.92,-1.899 -1,-2.065c10.21,-5.82 9.691,-6.475 24.544,-18.196c9.117,-7.195 9.462,-6.663 18.546,-13.826c0.582,-0.459 0.521,-0.398 1.06,-0.809c-0.933,5.199 -3.323,3.711 -9.512,11.61c-20.143,25.707 -39.166,35.969 -39.299,36.612c-0.756,3.667 17.989,-7.239 34.305,-26.635c16.469,-19.579 18.737,-21.682 20.563,-23.376Z" style="fill:#7a723a;"/><path d="M181.854,399.435c0.251,3.577 0.318,3.493 0.496,7.072c0.418,8.363 0.477,8.313 3.734,59.029c1.886,29.366 8.964,82.135 9.655,85.91c0.439,2.4 1.34,27.475 34.762,26.928c34.104,-0.559 63.405,-3.078 70.031,-3.389c92.929,-4.361 92.898,-4.829 100.984,-5.045c13.137,-0.35 140.911,-12.27 141.011,-12.289c11.126,-2.21 12.341,0.07 16.985,-1.099c7.775,-1.958 13.38,-3.478 17.497,-11.327c6.906,-13.168 4.202,-43.139 4.492,-58.724l1,-0.153c2.861,-1.299 2.946,-0.769 5.92,0.082c0.287,-0.396 1.985,-2.738 5.08,-3.396c0.369,-0.078 0.631,0.606 1,0.528l0.61,-0.037c-3.343,100.698 3.065,109.517 -7.783,132.877l-0.827,-0.475l-1,-0.581c-1.055,0.59 -1.116,0.393 -2.016,1.127c-0.704,0.573 -7.591,4.345 -8.258,4.71c-4.414,2.417 -4.971,0.567 -9.612,2.593c-2.733,1.193 -9.256,1.25 -18.234,3.381c-5.112,1.214 -20.104,1.514 -21.857,1.55l-0.207,0.795l-0.817,0.891c-0.865,-0.069 -9.285,0.04 -11.025,0.454c-6.35,1.509 -6.308,1.597 -20.971,2.711c-21.766,1.652 -21.685,1.935 -41.006,2.764c-23.976,1.029 -23.93,1.303 -26.013,1.385c-42.441,1.687 -42.309,3.357 -45.997,3.499c-19.35,0.744 -19.312,1.189 -20.991,1.094c-7.44,-0.423 -7.388,0.479 -8.025,0.396c-6.316,-0.818 -54.06,4.081 -58.969,3.705c-7.029,-0.539 -6.971,0.149 -13.998,0.245c-13.19,0.181 -13.105,-0.395 -22.048,-0.737c-3.545,-0.136 -3.521,0.798 -7.044,-0.04c-8.202,-1.952 -25.876,2.052 -39.629,-8.633c-1.474,-1.145 -0.475,-1.865 -1.979,-3.08c-1.13,-0.913 -2.427,-1.96 -8.809,-15.884c-0.61,-1.33 -0.308,-1.418 -4.959,-17.605c-0.215,-0.75 0.244,-1.757 -0.352,-4.211c-1.639,-6.749 -1.869,-20.996 -2.8,-25.012c-0.795,-3.43 -0.267,-3.42 -0.686,-6.88c-0.962,-7.951 -2.23,-12.999 -2.51,-14.112c-0.674,-2.682 -2.438,-22.244 -2.587,-24.909c-0.567,-10.122 -2.009,-9.964 -1.728,-17.053c0.063,-1.588 -2.343,-5.289 -2.151,-15.981c0.033,-1.841 0.104,-5.781 -0.754,-23.005c-0.203,-4.074 -0.87,-3.924 -1.133,-7.995c-0.078,-1.203 -0.692,-10.706 -1.269,-15.018c-3.717,-27.781 -1.317,-28.315 -4.166,-33.775c2.011,-4.523 4.16,-6.686 4.641,-7.171c1.552,-1.562 1.12,-1.822 2.357,-3.595c0.771,-1.105 1.248,-0.495 2.021,-1.58c0.181,-0.254 -0.247,-0.68 -0.066,-0.934Z" style="fill:#dbd2ca;"/><path d="M545.478,166.731c29.478,-0.185 75.451,6.319 76.348,20.755c0.216,3.473 2.863,9.38 -10.634,18.57c-4.632,3.154 -26.844,12.666 -30.444,9.202c-8.404,-8.088 -8.381,-12.134 -36.256,-14.638c-10.975,-0.986 -10.965,-0.338 -21.974,-1.279c-3.885,-0.332 -1.826,-3.273 -5.327,-5.406c-0.124,-0.076 -17.763,-9.278 -26.771,-7.077c-3.068,0.75 -5.033,-0.018 -6.032,1.468c-0.309,0.46 -0.16,1.177 -0.552,1.57c-0.086,0.086 -0.172,-0.193 -1.468,0.386c-1.081,0.483 -1.757,-1.21 -2.139,-1.396c-0.795,-0.389 -5.485,-0.236 -5.506,-0.223c-0.2,0.119 -0.048,0.622 -0.28,0.638c-0.241,0.016 -0.141,-0.583 -2.985,-0.489c0.506,-0.253 0.533,-1.089 1.04,-1.342c0.601,-0.3 1.348,-0.055 2.008,-0.178c3.883,-0.723 5.827,-1.851 11.916,-2.28c23.808,-1.676 56.288,-11.137 91.049,-5.364c37.864,6.288 36.128,14.952 36.274,16.82c0.101,1.296 0.642,0.861 2.011,1.267c0.177,-0.306 1.492,-2.57 0.984,-4.308c-3.795,-12.984 -28.909,-16.317 -36.282,-17.599c-2.78,-0.366 -24.023,-3.162 -34.961,-2.487c-50.361,3.107 -88.63,12.14 -144.205,39.705c-54.431,26.998 -78.143,44.068 -136.815,37.679c-26.904,-2.93 -26.733,-3.853 -40.872,-8.4l-0.414,-0.781c0.03,-0.096 -0.818,-0.659 0.317,-1.029c10.601,-3.454 12.836,-5.271 18.162,-7.667c36.591,-16.46 36.554,-17.281 63.938,-25.985c0.001,0.221 0.012,2.657 -0.11,2.766c-1.669,1.485 -2.019,0.798 -3.753,2.169c-2.993,2.366 -3.341,1.535 -13.305,5.617c-5.083,2.082 -1.993,3.728 -1.694,3.615c1.799,-0.682 1.567,-1.036 1.721,-1.091c10.166,-3.638 10.134,-3.643 11.05,-3.497c1.629,0.259 1.396,-0.337 1.981,-0.945c2.738,-2.843 4.944,-1.042 6.069,-2.733c0.144,-0.216 -0.1,-0.63 0.119,-0.769c0.195,-0.124 0.416,0.752 2.8,-0.676c2.132,-1.276 1.756,-1.67 1.952,-1.745c0.201,-0.077 -0.027,0.508 0.153,0.626c1.066,0.698 1.071,0.108 1.826,-0.945c2.365,-3.297 8.677,0.369 8.91,-4.003c0.079,-1.482 0.721,-0.842 1.142,-0.99c0.228,-0.08 2.046,-0.718 2.821,-1.072c5.855,-2.676 6.623,-2.623 7.236,-2.581c0.312,0.021 2.767,0.19 3.895,-0.368c1.68,-0.83 10.23,0.195 8.207,-1.803c-0.422,-0.417 -0.136,-3.211 2.834,-3.085c2.13,0.091 1.897,-0.937 4.002,-1.087c1.635,-0.117 2.285,-0.943 3.035,-0.965c2.523,-0.074 2.443,-0.471 4.976,-0.56c1.709,-0.06 1.404,-0.68 2.115,-0.943c0.533,-0.197 2.674,-0.272 2.907,-0.28c0.724,-0.025 6.014,-0.209 8.968,-1.285c8.133,-2.963 8.154,-2.913 34.037,-6.707c13.573,-1.99 14.724,-3.876 42.007,-6.95c10.076,-1.135 10.427,-2.939 17.99,-2.493l1,-0.098l1,-0.221l1,-0.099l1,0.273c0.686,0.277 1.372,0.554 2.058,0.831c-7.576,1.687 -30.309,8.97 -51.905,18.09c-4.601,1.943 -11.53,3.753 -8.981,5.375c2.395,1.524 48.93,-23.966 105.827,-28.754c4.558,-0.384 22.981,-2.516 24.978,-2.747Z" style="fill:#6d6434;"/><path d="M167.548,484.496c2.633,31.164 13.982,134.468 21.112,150.933c3.318,7.663 7.822,11.386 8.745,12.149c1.807,1.494 0.483,2.386 -0.881,1.826c-10.412,-4.277 -30.528,-10.199 -37.067,-27.882c-6.68,-18.066 -8.987,-48.501 -12.591,-74.075c-0.998,-7.081 -13.944,-122.823 -10.315,-125.866c0.668,-0.561 5.104,1.343 21.778,-13.289c2.897,-2.542 3.228,-1.091 3.265,-0.824c0.325,2.3 -0.435,2.297 1.303,29.009c0.243,3.737 2.88,27.005 4.652,48.02Z" style="fill:#8b7578;"/><path d="M438.814,384.797c-9.14,9.02 -66.109,48.248 -73.344,48.034c-3.389,-0.1 -6.733,-0.552 -8.796,-40.343c-2.966,-57.195 0.26,-58.254 3.827,-58.987c5.05,-1.038 49.193,21.271 64.785,31.341c11.483,7.416 21.659,11.006 13.528,19.955Z" style="fill:#830c0b;"/><path d="M181.854,399.435c-0.181,0.254 0.247,0.68 0.066,0.934c-0.773,1.085 -1.25,0.474 -2.021,1.58c-1.237,1.773 -0.806,2.032 -2.357,3.595c-0.482,0.485 -2.63,2.648 -4.641,7.171c2.849,5.46 0.449,5.994 4.166,33.775c0.577,4.312 1.191,13.815 1.269,15.018c0.263,4.072 0.93,3.922 1.133,7.995c0.858,17.223 0.787,21.163 0.754,23.005c-0.192,10.692 2.214,14.393 2.151,15.981c-0.281,7.089 1.161,6.932 1.728,17.053c0.149,2.665 1.913,22.226 2.587,24.909c0.279,1.112 1.547,6.16 2.51,14.112c0.419,3.46 -0.109,3.45 0.686,6.88c0.931,4.016 1.161,18.263 2.8,25.012c0.596,2.454 0.137,3.461 0.352,4.211c4.651,16.188 4.35,16.275 4.959,17.605c6.383,13.924 7.679,14.971 8.809,15.884c1.505,1.215 0.505,1.935 1.979,3.08c13.753,10.685 31.426,6.681 39.629,8.633c3.523,0.838 3.5,-0.095 7.044,0.04c8.943,0.342 8.858,0.918 22.048,0.737c7.027,-0.097 6.969,-0.785 13.998,-0.245c4.909,0.377 52.653,-4.522 58.969,-3.705c0.637,0.083 0.586,-0.819 8.025,-0.396c1.679,0.095 1.641,-0.349 20.991,-1.094c3.688,-0.142 3.556,-1.813 45.997,-3.499c2.082,-0.083 2.037,-0.357 26.013,-1.385c19.321,-0.829 19.24,-1.111 41.006,-2.764c14.663,-1.113 14.621,-1.201 20.971,-2.711c1.74,-0.414 10.161,-0.523 11.025,-0.454l0.817,-0.891l0.207,-0.795c1.753,-0.035 16.744,-0.336 21.857,-1.55c8.977,-2.131 15.501,-2.187 18.234,-3.381c4.641,-2.026 5.198,-0.176 9.612,-2.593c0.667,-0.365 7.554,-4.137 8.258,-4.71c0.9,-0.733 0.961,-0.537 2.016,-1.127l1,0.581l0.827,0.475c-7.545,11.436 -10.766,13.029 -27.966,16.613c-7.371,1.536 -87.564,9.111 -98.852,9.701c-75.544,3.949 -75.458,4.199 -82.025,4.421c-39.742,1.344 -60.087,4.867 -128.989,8.23c-8.026,0.392 -7.959,-0.006 -15.983,-0.24c-44.57,-1.296 -44.534,-27.641 -49.753,-60.672c-2.767,-17.514 -2.91,-17.462 -3.114,-18.988c-6.847,-51.372 -5.078,-56.334 -7.34,-77.949c-4.436,-42.402 -6.859,-83.603 -7.748,-94.024c-0.146,-1.716 4.108,-6.785 4.551,-7.313c9.381,-11.179 11.841,-16.719 11.453,-11.69c-0.077,0.992 -0.596,0.923 0.291,14.943Z" style="fill:#b9a8a4;"/><path d="M365.631,338.246c16.946,8.53 21.909,10.195 58.709,31.527c6.547,3.795 17.412,8.101 11.856,12.342c-5.12,3.908 -67.685,47.761 -70.625,46.954c-2.47,-0.678 -2.19,-1.935 -4.546,-45.542c-2.437,-45.108 -2.059,-48.277 1.405,-46.844c0.263,0.109 0.237,0.116 3.201,1.564Z" style="fill:#fdf8f4;"/><path d="M207.15,250.022c0.269,-0.156 3.546,-2.066 3.856,-0.475c0.08,0.411 -0.874,29.855 -3.545,48.948c-5.569,39.796 -24.91,79.465 -44.191,98.728c-4.595,4.591 -4.065,5.183 -9.59,8.614c-6.282,3.9 -5.002,6.179 -15.122,9.129c-14.919,4.349 -16.583,0.828 -21.038,-10.474c-2.148,-5.449 -3.085,-12.321 -3.771,-17.035c-0.126,-0.869 0.092,-0.87 -0.037,-10.974c-0.177,-13.883 7.461,-33.312 8.546,-36.072c0.243,-0.619 2.847,-7.241 2.564,-7.911c-0.287,-0.678 -1.527,-0.583 -1.813,-1.262c0.45,-0.934 0.901,-1.867 1.351,-2.801c2.393,2.179 2.35,2.756 2.326,3.063c-0.635,8.371 -0.878,9.25 -1.094,10.028c-0.82,1.587 -1.64,3.175 -2.459,4.762c-3.966,10.356 -11.694,39.894 -1.289,46.729c0.538,0.354 5.089,6.343 20.371,-3.934c5.548,-3.731 20.001,-20.925 25.379,-30.524c10.838,-19.346 13.45,-23.867 21.526,-58.147c0.463,-1.965 4.394,-28.087 4.602,-34.922c0.21,-6.892 -1.368,-7.891 1.924,-9.737c0.626,-0.351 9.684,-4.803 11.503,-5.733Z" style="fill:#6a573f;"/><path d="M389.594,223.588c1.324,-0.687 1.314,-0.593 3.66,-1.472c15.612,-5.856 23.27,-13.996 35.249,-14.202c28.871,-0.495 41.04,-3.501 74.995,-3.691c42.38,-0.238 51.685,2.018 56.05,3.076c2.91,0.705 18.633,2.498 24.299,28.063c-3.937,2.581 -5.675,6.083 -12.587,8.184c-3.184,-11.707 -4.735,-12.131 -6.3,-14.358c-1.241,-1.764 -6.098,-8.672 -25.458,-8.879c-50.826,-0.544 -81.896,0.609 -89.012,0.873c-4.805,0.178 -49.854,1.85 -59.978,3.941c-0.306,-0.511 -0.612,-1.023 -0.918,-1.534Z" style="fill:#a68c8d;"/><path d="M154.72,278.894c0.531,0.218 1.062,0.436 1.592,0.654c-1.845,16.63 2.885,82.763 2.062,84.898c-1.379,3.579 -24.871,30.959 -25.312,22.118c-0.861,-17.245 -3.276,-85.253 -2.879,-90.103c0.29,-3.54 18.736,-12.838 24.537,-17.566Z" style="fill:#8f7678;"/><path d="M583.846,235.361c0.224,0.991 1.623,0.985 4.377,37.16c0.292,3.836 2.468,32.417 3.065,47.99c3.357,87.456 3.658,87.399 3.675,95.005c0.005,2.451 -0.978,1.941 -3.464,2.01c-4.003,0.111 -9.963,1.694 -9.736,-3.014c1.352,-28.085 -5.412,-87.733 -5.241,-100.012c0.29,-20.873 -3.146,-60.944 -5.262,-70.955c6.912,-2.101 8.65,-5.603 12.587,-8.184Z" style="fill:#e7dccb;"/><path d="M279.576,590.328c2.136,1.202 8.287,3.246 12.737,13.247c6.636,14.914 -3.117,39.159 -28.745,36.435c-21.717,-2.309 -34.194,-34.497 -9.988,-49.369c3.516,-2.16 8.681,-3.381 9.873,-3.476c6.902,-0.553 14.903,2.672 16.122,3.164Z" style="fill:#1d1615;"/><path d="M539.294,623.069c-40.986,14.873 -54.042,-40.372 -18.842,-49.765c18.079,-4.824 40.459,13.973 30.818,37.095c-3.62,8.681 -10.593,11.785 -11.975,12.669Z" style="fill:#191512;"/><path d="M446.528,577.056c2.238,0.438 19.682,1.447 24.937,19.455c6.992,23.962 -20.534,41.974 -40.778,28.706c-9.955,-6.525 -12.946,-18.683 -11.502,-25.776c4.738,-23.275 26.31,-22.318 27.343,-22.385Z" style="fill:#2f0a0b;"/><path d="M357.467,635.043c-43.606,-0.117 -34.117,-63.013 7.031,-50.537c22.004,6.671 27.657,45.75 -7.031,50.537Z" style="fill:#2b0c07;"/><path d="M288.804,623.648c-1.817,3.079 -2.884,7.392 -12.423,11.589c-20.569,9.05 -45.394,-18.124 -25.804,-38.664c15.049,-15.779 48.905,-1.115 38.227,27.075Z" style="fill:#bbdde5;"/><path d="M602.921,429.843c-1.367,4.735 -1.362,4.818 0.042,9.538c0.775,2.605 -4.65,7.949 0.326,14.436c0.172,-0.614 1.238,-0.68 1.41,-1.294c0.112,-0.399 -0.568,-0.3 -1.038,-5.08c-0.512,-5.206 2.032,-4.975 2.097,-4.315c0.032,0.319 -0.658,9.092 3.157,14.197c-0.294,0.297 -5.317,2.44 1.569,7.196c0.006,0.673 0.011,1.347 0.017,2.02c-2.852,-0.752 -2.89,-0.879 -21.022,0.082c-29.947,0.625 -32.472,2.378 -31.968,-1.12c2.64,-18.327 19.278,-33.032 21.76,-35.226c2.069,0.839 2.096,0.672 4.228,0.208c3.637,-0.791 8.748,0.903 18.001,-0.465l1.421,-0.177Z" style="fill:#794923;"/><path d="M409.147,116.716c3.178,5.594 10.68,17.081 -2.524,12.404c-9.704,-3.437 -10.681,-6.95 -14.68,-2.264c-0.623,0.73 -10.807,14.002 -13.698,9.853c-1.183,-1.698 -1.024,-11.088 -0.503,-15.188c0.689,-5.423 -3.52,-3.461 -12.114,-8.265c-2.122,-1.187 -7.412,-3.86 1.054,-7.331c7.012,-2.875 12.613,-3.297 12.906,-5.406c1.097,-7.891 0.538,-23.87 10.494,-11.67c6.345,7.775 5.921,8.881 8.418,8.651c4.984,-0.459 20.506,-3.352 16.172,4.104c-2.938,5.053 -6.227,8.404 -6.869,9.155c-2.296,2.681 -0.291,2.871 1.345,5.958Z" style="fill:#330801;"/><path d="M451.555,581.322c1.299,0.471 12.931,2.719 16.807,16.212c2.067,7.197 -0.914,14.355 -1.301,15.796c-0.57,0.057 -1.14,0.113 -1.709,0.17l-0.888,1l-0.963,1.343l-1,1.085l-1,0.749c-31.022,12.826 -41.789,-17.645 -30.304,-29.177c8.642,-8.676 17.233,-5.909 18.304,-6.267c0.818,-0.273 0.297,-0.834 1.114,-1.196c0.531,-0.236 0.416,0.518 0.941,0.285Z" style="fill:#f4b5b2;"/><path d="M356.522,586.122c1.647,0.245 8.674,0.058 15.734,6.626c8.798,8.184 6.217,19.886 5.831,21.637c-1.47,0.288 -1.487,0.229 -1.587,0.311c-0.302,0.244 0.309,0.62 -2.921,3.877c-17.178,17.315 -39.011,2.758 -36.702,-13.063c2.085,-14.292 9.532,-15.893 10.623,-16.43l1,-0.335l1,-0.388l1,-0.262l1,-0.276l1,-0.385l1,-0.09l1,-0.059c0.674,-0.387 1.348,-0.774 2.022,-1.162Z" style="fill:#fad5ba;"/><path d="M524.517,576.132c25.549,0.762 27.713,19.374 24.248,31.472c-0.195,0.025 -0.966,-0.887 -2.266,0.293c-2.214,2.01 -2.091,2.104 -2.296,2.26c-0.203,0.155 -0.437,0.269 -0.633,0.434c-14.858,12.461 -34.081,1.249 -35.838,-8.165c-0.054,-0.289 0.437,-0.527 0.353,-0.809c-0.079,-0.267 -0.712,-0.275 -1.292,-2.192c-1.78,-5.882 1.546,-4.693 1.815,-4.85c0.068,4.157 4.257,14.22 6.987,13.067c0.709,-0.299 4.926,-13.902 3.761,-15.002c-2.222,-2.099 -3.872,6.655 -3.912,6.842c-1.806,8.411 -1.895,-3.127 -5.969,-5.851c-0.011,-0.032 -1.272,-0.61 -0.76,-2.103c0.61,-1.776 2.939,-10.141 12.782,-12.976l1,-0.476l0.963,-0.575l1.054,-1.368Z" style="fill:#cfeff2;"/><path d="M512.533,426.383c-0.683,3.772 -3.057,1.927 -5.114,5.037c-3.488,5.273 -4.912,13.928 4.224,18.818c4.66,2.494 2.841,3.803 4.254,10.163c1.053,4.735 4.311,7.3 1.606,7.144c-4.84,-0.278 -47.483,-3.573 -48.751,-5.359c-1.325,-1.866 4.286,-11.715 4.822,-12.657c6.521,-10.564 9.461,-12.633 16.157,-18.546c6.392,-3.482 7.058,-1.872 22.801,-4.601Z" style="fill:#8b552c;"/><path d="M539.612,164.149c-0.055,0.045 -0.196,1.529 -1.989,1.628c-35.08,1.924 -60.421,8.61 -62.065,8.991c-0.686,-0.277 -1.372,-0.554 -2.058,-0.831l-1,-0.273l-1,0.099l-1,0.221l-1,0.098c-7.563,-0.446 -7.914,1.358 -17.99,2.493c-27.284,3.074 -28.434,4.96 -42.007,6.95c-25.883,3.794 -25.903,3.744 -34.037,6.707c-2.953,1.076 -8.243,1.26 -8.968,1.285c-0.234,0.008 -2.374,0.082 -2.907,0.28c-0.711,0.263 -0.406,0.883 -2.115,0.943c-2.533,0.089 -2.453,0.487 -4.976,0.56c-0.75,0.022 -1.401,0.848 -3.035,0.965c-2.105,0.15 -1.873,1.178 -4.002,1.087c-2.97,-0.127 -3.255,2.668 -2.834,3.085c2.022,1.998 -6.528,0.973 -8.207,1.803c-1.129,0.558 -3.583,0.39 -3.895,0.368c-0.613,-0.042 -1.38,-0.095 -7.236,2.581c-0.774,0.354 -2.593,0.992 -2.821,1.072c-0.422,0.148 -1.064,-0.491 -1.142,0.99c-0.232,4.372 -6.545,0.707 -8.91,4.003c-0.756,1.054 -0.761,1.644 -1.826,0.945c-0.18,-0.118 0.048,-0.703 -0.153,-0.626c-0.195,0.075 0.18,0.469 -1.952,1.745c-2.384,1.427 -2.606,0.552 -2.8,0.676c-0.219,0.139 0.025,0.553 -0.119,0.769c-1.125,1.691 -3.331,-0.11 -6.069,2.733c-0.586,0.608 -0.352,1.205 -1.981,0.945c-0.916,-0.146 -0.883,-0.141 -11.05,3.497c-0.153,0.055 0.079,0.409 -1.721,1.091c-0.299,0.113 -3.389,-1.533 1.694,-3.615c9.963,-4.081 10.312,-3.251 13.305,-5.617c1.735,-1.371 2.084,-0.684 3.753,-2.169c0.122,-0.109 0.111,-2.545 0.11,-2.766c6.946,-2.455 7.15,-2.513 7.785,-2.692c14.845,-4.188 70.355,-25.008 146.17,-35.262c54.26,-7.339 73.664,-5.398 80.047,-4.759Z" style="fill:#9e9553;"/><path d="M176.503,282.499c0.032,16.583 0.111,16.562 0.085,18.002c-0.396,22.739 1.943,22.836 0.631,26.926c-4.637,14.46 -9.34,22.432 -10.413,24.251c-2.022,3.428 -1.643,4.725 -3.355,3.92c-0.692,-0.325 -0.745,-0.328 -0.732,-1.133c0.108,-6.632 -0.83,-12.583 -0.911,-16.975c-0.191,-10.431 -2.163,-49.083 -2.107,-54.992c0.033,-3.488 -2.092,-5.077 4.709,-9.144c9.455,-5.653 13.17,-9.234 12.477,-4.86c-0.39,2.459 -0.386,12.884 -0.385,14.005Z" style="fill:#b9a8a2;"/><path d="M587.676,424.902c-0.929,0.591 -0.888,0.552 -1.897,1.076c-0.692,-0.253 -0.747,-1.426 -1.439,-1.679c-1.02,-0.373 -8.97,5.854 -9.703,6.428c-1.828,1.807 -1.816,1.796 -1.974,1.952c-12.801,12.646 -17.882,28.375 -17.792,33.844c0.033,1.993 -1.025,1.705 -12.371,1.57c-2.811,-0.034 -3.03,-0.095 -4.313,-2.43c-3.031,-5.512 -2.76,-6.403 -3.782,-12.15l0.039,-1.045c0.874,-0.916 15.732,-7.728 11.169,-19.017c-2.091,-5.173 -11.026,-8.497 -4.068,-9.664c7.26,-1.218 31.238,-1.044 33.955,-1.024c8.665,0.063 9.388,-1.176 12.176,2.139Z" style="fill:#955f2f;"/><path d="M517.698,427.77c4.832,-4.62 6.679,-1.316 15.754,-3.489c4.084,-0.978 1.805,2.415 3.285,4.004c0.378,0.406 12.667,7.473 2.445,16.853c-4.28,3.928 -7.575,1.662 -7.612,7.361c-0.081,12.734 8.525,16.076 3.026,15.5c-9.332,-0.976 -13.222,1.81 -15.726,-8.581c-0.77,-3.197 -0.756,-9.338 -2.26,-10.089c-0.51,-0.255 -6.405,-1.832 -8.371,-7.753c-2.523,-7.597 6.432,-12.126 7.481,-12.656c1.053,-0.532 1.003,-0.492 1.977,-1.151Z" style="fill:#e6b067;"/><path d="M398.517,100.784c4.716,-0.384 12.101,-1.313 12.713,-0.179c0.414,0.768 -5.75,7.425 -7.466,10.07c-2.061,3.178 7.027,12.901 5.711,14.811c-1.113,1.615 -10.592,-3.518 -13.872,-4.337c-5.059,-1.263 -12.205,11.818 -14.101,11.84c-1.512,0.017 -0.991,-4.349 -0.561,-12.48c0.313,-5.925 -3.062,-5.536 -13.561,-9.861c-1.193,-0.491 -1.042,-1.65 0.185,-2.032c1.036,-0.323 11.737,-3.656 12.912,-4.166c4.663,-2.024 1.95,-19.516 5.769,-15.622c5.952,6.069 6.453,11.795 12.271,11.955Z" style="fill:#cb442e;"/><path d="M318.445,318.076c-6.272,0.918 -7.554,0.054 -22.219,8.976c-10.878,6.617 -13.352,12.83 -14.435,6.413c-1.641,-9.727 21.453,-39.072 39.843,-33.317c3.537,1.107 7.101,5.729 7.273,11.326c0.202,6.57 -6.995,6.109 -10.462,6.602Z" style="fill:#20120f;"/><path d="M443.394,467.285c4.06,-2.791 4.577,-4.162 7.032,-3.509c21.475,5.708 36.061,4.813 34.705,7.506c-0.32,0.635 -7.146,7.439 -7.782,8.072c-13.554,13.509 -34.127,24.227 -34.654,24.541l-1.196,-1.681l-1,0.401l-1,0.408l-1,0.813l-1,0.076l-1,-0.269l-1,-0.469c-0.647,-0.069 -4.652,0.596 -5.412,-1.674c-0.428,-1.28 -0.967,-1.79 0.401,-2.054c9.403,-1.817 8.772,-5.598 12.051,-5.689c4.929,-0.137 5.847,-3.77 17.619,-11.658c4.078,-2.733 4.249,-3.028 6.195,-2.091c1.877,0.904 2.464,-1.519 1.304,-1.653c-0.824,-0.095 -0.788,-0.048 -1.493,-0.431c-2.107,-1.145 -2.368,0.173 -4.574,-0.669c-7.762,-2.963 -7.967,-2.498 -14.936,-6.941c-0.167,-0.086 -1.977,-1.017 -2.038,-1.157c-0.094,-0.219 0.413,-0.458 0.282,-0.657c-0.353,-0.54 -1.153,-0.675 -1.506,-1.215Z" style="fill:#568ab0;"/><path d="M475.539,296.447c15.707,12.94 12.253,23.142 5.139,18.753c-26.168,-16.145 -31.1,-1.691 -36.956,-7.943c-0.089,-0.095 -7.865,-14.833 9.783,-15.642c9.49,-0.435 10.435,-2.89 22.034,4.833Z" style="fill:#170909;"/><path d="M312.422,364.05c-7.306,1.709 -6.805,2.771 -13.078,6.184c-0.901,0.49 -6.229,1.292 -2.379,-3.296c2.032,-2.422 2.771,-2.27 2.462,-5.431c-2.049,-21.002 27.956,-26.029 31.809,-4.976c0.641,3.501 -0.941,4.256 1.929,6.425c2.731,2.064 1.311,4.254 -1.544,3.24c-2.722,-0.967 -9.069,-3.441 -19.2,-2.145Z" style="fill:#290c07;"/><path d="M482.275,347.819c5.053,8.19 -12.171,-4.083 -27.572,5.99c-0.184,0.12 -5.379,4.478 -6.947,3.252c-1.676,-1.31 2.436,-5.345 2.34,-6.535c-0.004,-0.045 -3.464,-8.998 4.413,-17.018c6.234,-6.347 22.913,-7.098 24.7,11.009c0.241,2.438 1.019,1.974 3.066,3.3Z" style="fill:#280b08;"/><path d="M203.432,218.637c0.516,0.495 1.033,0.991 1.549,1.486c7.735,5.835 10.665,18.093 -1.605,24.199c-4.673,2.325 -5.761,3.548 -10.832,0.753c-0.362,0.108 -0.725,0.217 -1.087,0.325c1.274,4.614 0.856,4.712 1.053,5.077c0.174,0.322 0.873,0.005 1.046,0.327c-1.17,0.463 -2.34,0.927 -3.51,1.39c-0.054,-0.758 -0.638,-8.973 -0.907,-9.46c-0.91,-1.65 -8.189,-14.855 5.539,-22.895c0.368,-0.216 0.85,-0.498 4.987,-1.896c1.94,-0.655 1.952,-0.211 3.766,0.694Z" style="fill:#2a0d03;"/><path d="M360.617,458.932c7.125,0.676 10.447,3.812 45.791,-4.799c3.513,-0.856 20.336,-5.631 31.021,-11.909c4.556,-2.677 0.506,3.582 0.194,4.328c-1.634,3.91 -0.276,7.579 -22.092,13.083c-18.949,4.781 -55.083,4.785 -55.121,-0.206c-0.001,-0.179 0.208,-0.317 0.207,-0.497Z" style="fill:#fbf5f1;"/><path d="M682.692,282.549c1.946,-1.025 2.214,-0.165 2.527,1.983c2.048,14.024 -4.804,22.698 -7.645,27.02c-2.963,4.508 -4.794,5.075 -6.521,7.449c-2.718,3.738 -16.193,9.05 -16.642,9.19c-3.066,0.959 -3.716,3.475 -5.296,0.638c-0.166,-0.298 -0.204,-0.202 -1.439,-0.577c-1.454,-0.441 -7.58,4.752 -9.87,10.369c-7.424,18.209 14.929,28.982 16.907,36.82c2.499,9.905 0.961,16.777 -10.326,27.921c-5.384,5.315 -8.315,5.468 -11.914,8.012c-0.307,-0.621 -0.615,-1.241 -0.922,-1.862c0.416,-0.688 0.832,-1.375 1.248,-2.063c2.271,-0.027 2.241,-0.206 3.83,-1.875c0.897,0.326 0.974,1.008 1.921,0.174c0.583,-0.514 0.611,-0.415 1.141,-0.945c19.725,-19.691 14.632,-28.122 4.195,-38.716c-24.058,-24.418 1.705,-40.486 4.761,-40.116c6.779,0.822 22.522,-9.443 26.397,-14.792c10.652,-14.705 7.874,-24.251 7.647,-28.631Z" style="fill:#807872;"/><path d="M356.522,586.122c-0.674,0.387 -1.348,0.774 -2.022,1.162l-1,0.059l-1,0.09l-1,0.385l-1,0.276l-1,0.262l-1,0.388l-1,0.335c-1.091,0.537 -8.538,2.137 -10.623,16.43c-2.308,15.821 19.524,30.378 36.702,13.063c3.231,-3.256 2.619,-3.632 2.921,-3.877c0.101,-0.081 0.118,-0.023 1.587,-0.311c-7.298,29.526 -51.581,18.487 -45.657,-10.898c0.952,-4.721 5.12,-11.043 8.402,-13.577c6.51,-5.024 14.41,-3.96 15.69,-3.788Z" style="fill:#cc9e95;"/><path d="M524.517,576.132l-1.054,1.368l-0.963,0.575l-1,0.476c-9.844,2.835 -12.172,11.2 -12.782,12.976c-0.513,1.493 0.748,2.071 0.76,2.103l-0.868,0.944c-0.269,0.157 -3.595,-1.031 -1.815,4.85c0.58,1.917 1.212,1.924 1.292,2.192c0.084,0.282 -0.407,0.52 -0.353,0.809c1.758,9.414 20.98,20.626 35.838,8.165c0.196,-0.164 0.429,-0.279 0.633,-0.434c0.205,-0.156 0.082,-0.251 2.296,-2.26c1.3,-1.18 2.071,-0.267 2.266,-0.293c-14.781,33.962 -64.757,2.399 -38.102,-25.943c6.373,-6.777 12.676,-5.725 13.853,-5.529Z" style="fill:#94b3c1;"/><path d="M369.671,611.709c-2.174,1.771 -11.784,11.458 -11.925,2.767c-0.035,-2.191 0.837,-3.464 -1.264,-3.037c-0.447,0.091 -12.474,13.45 -12.842,5.054c-0.57,-13.024 -1.648,-18.331 4.09,-15.442c6.679,3.362 9.967,8.218 9.48,2.457c-0.745,-8.817 6.065,-3.107 10.025,-0.611c3.887,2.45 4.616,3.456 4.909,3.861c1.645,2.273 -2.354,4.839 -2.474,4.951Z" style="fill:#310805;"/><path d="M451.555,581.322c-0.525,0.233 -0.41,-0.52 -0.941,-0.285c-0.817,0.362 -0.296,0.922 -1.114,1.196c-1.071,0.358 -9.662,-2.41 -18.304,6.267c-11.485,11.531 -0.718,42.003 30.304,29.177l1,-0.749l1,-1.085l0.963,-1.343l0.888,-1c0.57,-0.057 1.14,-0.113 1.709,-0.17c-14.244,27.245 -53.854,7.304 -43.284,-18.706c7.601,-18.703 25.398,-13.94 27.778,-13.303Z" style="fill:#be8a95;"/><path d="M454.263,437.075c-0.082,0.509 0.685,0.916 0.603,1.425c-0.511,3.172 -7.558,7.561 2.594,10.138c4.543,1.153 4.404,1.409 9.063,2.229c0.766,0.135 0.891,0.238 0.953,0.289c0.849,0.701 0.504,0.913 1.418,1.667c-2.836,7.493 -2.352,7.657 -2.711,8.251c-1.079,1.783 -18.678,-2.521 -21.525,-3.92c-6.788,-3.335 -4.178,-5.165 -3.593,-6.807c1.796,-5.047 3.553,-12.919 13.199,-13.274Z" style="fill:#6f411f;"/><path d="M487.445,429.59c-0.179,0.252 -0.002,0.658 -0.181,0.91c-0.613,0.864 -8.549,3.94 -18.37,22.324c-0.914,-0.754 -0.569,-0.966 -1.418,-1.667c-0.061,-0.051 -0.187,-0.154 -0.953,-0.289c-4.658,-0.82 -4.52,-1.076 -9.063,-2.229c-10.152,-2.578 -3.105,-6.966 -2.594,-10.138c0.082,-0.509 -0.685,-0.916 -0.603,-1.425c12.078,-3.09 11.939,-3.361 24.266,-5.424c4.545,-0.761 4.279,-1.863 8.916,-2.061Z" style="fill:#a56b38;"/><path d="M355.602,150.078c-0.107,0.543 0.476,1.076 0.369,1.618c-0.23,1.165 -1.3,-0.769 -29.572,9.593c-0.423,0.155 -29.618,8.447 -69.752,24.558c-43.879,17.614 -49.411,25.384 -49.15,21.652c0.19,-2.712 48.546,-27.344 108.903,-45.422c15.593,-4.67 24.836,-9.555 39.202,-11.999Z" style="fill:#2f1f05;"/><path d="M263.59,623.253c-4.574,-2.409 -4.676,-2.136 -8.867,-5.07c-3.988,-2.791 -3.217,-5.05 6.451,-12.108c8.088,-5.904 3.936,5.375 6.323,5.469c0.739,0.029 0.606,-0.271 7.073,-5.962c6.989,-6.151 5.841,3.718 6.294,7.872c2.116,19.374 -10.968,1.335 -13.357,3.052c-1.607,1.155 3.078,7.655 -3.916,6.746Z" style="fill:#1d1714;"/><path d="M518.587,430.686c2.511,-1.524 2.508,-1.493 2.711,-1.646c0.88,-0.66 2.935,1.191 6.252,0.698c0.842,-0.125 6.944,-1.031 9.951,3.76c7.675,12.231 -24.766,19.085 -25.223,5.002c-0.185,-5.702 6.258,-7.787 6.309,-7.814Z" style="fill:#ce6031;"/><path d="M184.607,299.527c-1.314,6.431 -1.29,6.389 -2.22,12.934c-0.317,2.229 -2.095,2.193 -2.224,0.152c-0.127,-2.003 0.069,-1.989 -0.047,-25.089c-0.115,-23.1 0.862,-23.71 2.552,-24.763c3.845,-2.397 7.703,-4.786 7.66,-2.235c-0.26,15.136 -5.017,35.927 -5.721,39.001Z" style="fill:#334b6c;"/><path d="M636.63,405.575c-1.589,1.669 -1.56,1.848 -3.83,1.875c1.42,-5.125 5.415,-5.63 6.77,-12.941c3.289,-17.758 -5.076,-19.216 -21.917,-35.172c-12.708,-12.04 -11.711,-32.965 12.951,-49.596c0.146,-0.098 2.734,-1.844 2.047,0.807c-0.315,1.214 -31.788,20.038 -15.797,43.675c8.151,12.048 40.747,23.201 19.777,51.353Z" style="fill:#6e635c;"/><path d="M539.612,164.149c3.617,0.027 4.387,-0.69 5.866,2.581c-1.997,0.231 -20.421,2.363 -24.978,2.747c-56.896,4.788 -103.432,30.278 -105.827,28.754c-2.549,-1.622 4.38,-3.432 8.981,-5.375c21.596,-9.12 44.329,-16.402 51.905,-18.09c1.644,-0.381 26.985,-7.067 62.065,-8.991c1.793,-0.098 1.934,-1.583 1.989,-1.628Z" style="fill:#342404;"/><path d="M631.543,427.455c3.163,5.069 1.628,5.687 4.591,11.229c2.281,4.265 -2.085,5.385 1.04,9.086c1.963,2.325 -0.872,3.561 -4.799,11.547l-1.751,-1.02l-1.133,-0.651l-0.96,-0.315c-0.652,-0.976 -0.664,-0.888 -1.586,-1.946c-5.551,-8.086 -4.712,-10.159 -4.751,-12.875c0.747,-0.769 2.05,-0.819 2.797,-1.589c0.273,-0.282 -0.24,-0.799 -0.116,-1.172c0.146,-0.439 0.585,-0.059 0.905,-1.042c0.368,-1.127 3.775,-5.718 4.301,-10.208l1.463,-1.045Z" style="fill:#e09650;"/><path d="M644.402,268.409c-4.175,6.374 -2.424,14.035 6.182,9.256c2.03,-1.127 2.808,1.312 0.025,2.96c-12.405,7.347 -16.202,-14.193 -2.126,-18.194c12.232,-3.476 30.006,13.091 14.555,35.701c-5.25,7.682 -12.305,8.148 -15.452,9.56c-2.088,0.937 -2.815,-0.746 -1.049,-2.135c2.737,-2.152 11.519,0.631 18.169,-16.978c6.877,-18.21 -10.985,-29.215 -20.305,-20.17Z" style="fill:#756b66;"/><path d="M125.594,341.528c0.259,0.511 -0.725,0.311 -0.453,0.847c0.447,0.881 0.963,0.295 1.454,1.124c0.557,0.941 0.089,7.368 0.042,8.007c-0.146,2.002 0.642,27.19 1.436,34.151c1.183,10.376 -5.841,3.145 -6.13,2.599c-6.356,-11.983 3.557,-39.777 2.854,-40.812c-0.379,-0.558 -1.284,-0.595 -1.663,-1.154c0.82,-1.587 1.64,-3.175 2.459,-4.762Z" style="fill:#493528;"/><path d="M383.574,471.423c1.376,-2.018 1.906,-2.795 29.91,-6.097c5.303,-0.625 14.623,4.24 14.655,4.291c0.734,1.151 -0.402,1.364 -16.678,3.615c-4.108,0.568 -22.976,-0.843 -27.887,-1.809Z" style="fill:#be7f75;"/><path d="M624.619,423.449c1.496,0.277 1.452,0.341 2.984,0.23c-0.051,1.843 0.287,1.857 2.042,2.442c1.134,0.378 0.977,0.52 1.898,1.334l-1.463,1.045c-0.526,4.49 -3.933,9.081 -4.301,10.208c-0.321,0.982 -0.759,0.602 -0.905,1.042c-0.124,0.372 0.39,0.89 0.116,1.172c-0.747,0.769 -2.05,0.819 -2.797,1.589c1.681,-9.325 7.929,-14.818 2.534,-11.547c-0.192,0.116 -6.723,9.882 -5.433,15.571c0.159,0.702 0.913,4.025 4.246,7.926c1.263,1.478 1.511,0.954 3.404,0.926c0.922,1.058 0.934,0.97 1.586,1.946l-1.044,-0.015c-1.006,0.461 -7.384,3.386 -12.063,-6.766c-3.903,-8.469 5.118,-19.56 6.22,-20.914c2.075,-2.55 2.822,-2.292 2.976,-6.188Z" style="fill:#da8b51;"/><path d="M414.085,542.089c0.641,0.783 1.281,1.566 1.922,2.349c0.043,1.016 0.224,2.024 0.268,3.04c0.212,4.953 -6.025,11.517 -11.559,3.886c-1.889,-2.604 -1.862,-9.188 -4.252,-3.876c-1.695,3.768 -9.71,9.872 -12.536,4.8c-0.739,-1.327 0.314,-1.529 -0.404,-2.798c-0.684,-1.208 -10.591,5.545 -13.648,-2.723c0.618,-0.232 1.236,-0.464 1.854,-0.696c9.432,5.114 10.7,-1.988 15.793,-3.477c4.804,-1.405 -1.577,5.526 -0.838,7.836c0.278,0.868 2.507,3.431 9.273,-6.607c4.807,-7.132 4.401,2.729 7.755,6.486c5.678,6.361 6.072,-7.135 6.373,-8.22Z" style="fill:#37332b;"/><path d="M397.901,496.738c5.756,-1.511 4.01,6.06 6.587,4.734c0.572,-0.294 1.892,-16.221 7.824,-1.853c1.328,3.217 2.761,-4.406 5.01,-5.472c4.167,-1.976 4.267,8.511 4.552,9.137c0.139,0.306 1.391,3.058 0.546,4.171c-0.46,0.607 -4.387,1.678 -3.183,-8.973c-0.113,-0.309 0.222,-0.672 0.11,-0.982c-0.348,-0.954 -0.706,-0.929 -0.804,-0.922c-0.804,0.056 -0.157,0.989 -0.935,1.044c-0.213,0.498 -0.321,0.437 -2.892,6.12c-0.052,0.116 -0.005,6.303 -2.91,0.571c-2.645,-5.219 -3.843,-10.383 -4.269,-5.799c-0.056,0.603 -1.392,15.008 -6.576,3.737c-3.574,-7.77 -1.871,3.029 -3.834,7.068c-2.148,4.418 -5.735,7.807 -6.64,7.281c-0.519,-0.302 -0.626,-1.09 -1.145,-1.392c0.392,-0.552 0.784,-1.104 1.175,-1.656c0.245,-0.421 0.49,-0.842 0.735,-1.264c0.207,-0.757 0.415,-1.515 0.622,-2.272c1.495,0.438 1.488,0.52 1.615,0.473c0.961,-0.354 1.861,-9.252 4.413,-13.751Z" style="fill:#373733;"/><path d="M452.502,614.806c-4.553,-0.805 -4.344,-2.264 -5.113,-18.301c-0.33,-6.878 8.097,-6.547 8.748,-0.953c1.978,17.017 0.505,17.912 -0.774,18.689c-0.953,0.579 -1.002,0.342 -2.861,0.565Z" style="fill:#43130f;"/><path d="M217.512,109.516c-1.826,1.694 -4.093,3.798 -20.563,23.376c-16.316,19.396 -35.061,30.302 -34.305,26.635c0.132,-0.643 19.156,-10.905 39.299,-36.612c6.189,-7.899 8.579,-6.411 9.512,-11.61c2.397,-2.886 2.658,-2.545 5.045,-3.016l1.012,1.227Z" style="fill:#2a1304;"/><path d="M444.782,609.48c-0.06,5.009 -0.322,6.341 -5.281,6.006c-4.093,-0.277 -3.493,-4.55 -3.97,-16.986c-0.103,-2.693 -0.359,-6.133 3.931,-6.329c5.345,-0.244 4.497,5.652 5.321,17.308Z" style="fill:#3d100d;"/><path d="M306.858,313.102c-7.707,-1.287 -7.868,-1.006 -8.229,-1.571c-0.291,-0.456 4.834,-4.093 7.88,-3.876c3.926,0.28 13.556,3.618 8.852,-0.003c-1.748,-1.346 -10.605,-2.726 -5.748,-3.885c16.313,-3.89 16.807,9.278 12.88,9.679c-4.211,0.43 -5.13,-0.115 -13.896,2.498c-0.454,-2.033 -0.44,-2.023 -0.49,-2.195c-0.068,-0.232 -0.138,-0.174 -1.25,-0.647Z" style="fill:#b1b19e;"/><path d="M197.297,222.051l1.203,0.938l1,0.622c-6.625,6.882 0.345,6.881 7.206,13.001c-0.482,0.927 -4.555,8.755 -12.155,4.798c-4.8,-2.5 -7.611,-14.237 2.746,-19.358Z" style="fill:#9c7b59;"/><path d="M595.11,483.524l-0.61,0.037c-0.369,0.078 -0.631,-0.606 -1,-0.528c-3.095,0.658 -4.793,3.001 -5.08,3.396c-2.974,-0.851 -3.059,-1.381 -5.92,-0.082l-1,0.153c-0.453,-11.891 -0.409,-12.037 -0.11,-13.036c0.281,-0.937 0.426,-1.418 12.098,-1.762c1.996,-0.059 1.532,4.306 1.622,11.822Z" style="fill:#b29e9a;"/><path d="M170.507,224.85c0.023,1.532 0.054,1.526 0.025,1.655c-0.394,1.782 -15.051,8.272 -23.258,13.687c-31.431,20.738 -30.198,22.413 -32.953,24.174c-0.325,0.208 -0.849,-0.152 -1.154,0.083c-0.261,0.201 0.054,0.765 -0.207,0.966l-0.837,-1.648c11.262,-14.275 47.75,-34.059 58.383,-38.917Z" style="fill:#250f01;"/><path d="M323.161,463.687c-0.602,2.472 -1.443,3.996 3.383,7.794c-0.235,0.281 0.251,0.817 0.016,1.098c-0.845,1.01 -6.996,-2.326 -6.84,-7.071c0.221,-6.725 -4.575,-8.012 0.601,-12.236c1.803,-1.471 -1.281,-6.671 2.439,-10.484c1.446,-1.482 2.989,0.185 4.049,-2.126c3.188,-6.947 7.214,-4.387 8.586,-5.313c7.115,-4.805 7.383,-0.431 6.978,-0.046c-1.469,1.396 -3.693,-1.356 -6.082,4.098c-1.958,4.47 -2.516,0.228 -2.532,0.026c-0.319,-4.062 -5.504,1.22 -4.862,6.093c0.52,3.947 -1.86,1.947 -1.992,1.717c-0.892,-1.545 -0.444,-2.121 -2.084,-2.342c-0.289,-0.039 -1.669,2.804 -1.454,4.608c0.571,4.792 1.972,4.7 1.18,7.051c-0.735,2.183 -2.655,-1.86 -3.688,0.179c-0.488,0.963 2.053,6.422 2.3,6.954Z" style="fill:#2d2928;"/><path d="M387.605,169.8c-13.202,1.773 -9.644,-21.659 -0.346,-15.897c3.856,2.39 7.088,12.298 0.346,15.897Z" style="fill:#2a1603;"/><path d="M347.523,175.463c-6.714,-3.18 -0.418,5.018 -2.275,6.822c-2.136,2.076 -2.381,-1.534 -6.469,-13.872c-1.838,-5.549 6.948,-9.075 10.434,-3.76c2.858,4.358 -2.762,6.482 1.569,9.437c0.383,0.262 4.564,3.114 3.752,4.427c-0.884,1.428 -3.255,-0.338 -7.011,-3.054Z" style="fill:#331d04;"/><path d="M443.485,159.811c-9.69,-2.344 -5.405,-13.238 -4.744,-14.142c6.883,-9.415 18.277,12.448 4.744,14.142Z" style="fill:#261202;"/><path d="M204.981,220.123c10.255,-7.407 10.361,13.912 10.438,15.376c0.322,6.11 -2.385,4.745 -8.91,9.115c-5.993,4.014 -6.526,2.826 -12.952,6.19c-0.174,-0.322 -0.873,-0.005 -1.046,-0.327c-0.197,-0.365 0.221,-0.463 -1.053,-5.077l1.087,-0.325c5.071,2.795 6.159,1.572 10.832,-0.753c12.269,-6.106 9.339,-18.364 1.605,-24.199Z" style="fill:#6c553b;"/><path d="M587.676,424.902c2.595,-1.35 2.565,-1.372 2.803,-1.458c4.329,-1.574 16.804,0.637 17.277,0.793c-2.315,2.936 -2.632,2.601 -4.835,5.607l-1.421,0.177c-9.252,1.368 -14.364,-0.326 -18.001,0.465c-2.132,0.463 -2.16,0.63 -4.228,-0.208c3.156,-2.391 3.179,-2.261 6.508,-4.299c1.009,-0.525 0.968,-0.485 1.897,-1.076Z" style="fill:#c78c4c;"/><path d="M450.292,295.675c-0.894,2.233 -1.551,2.399 -0.17,4.378c1.228,-1.671 1.182,-1.619 2.555,-3.255c5.188,-2.829 7.683,-2.117 9.124,-1.527c-3.502,2.883 -3.674,2.569 -7.438,5.119c-2.245,2.968 1.154,1.266 1.182,1.268c0.675,-0.265 2.528,-0.994 7.913,-4.42c0.184,-0.031 4.752,-1.876 10.117,2.217c-1.621,0.466 -1.507,0.695 -3.131,0.901c-2.482,0.315 -3.636,0.841 -4.024,0.96c-0.442,0.161 -0.421,0.096 -0.901,0.272c-1.747,0.639 -1.484,0.971 -3.013,1.972c-7.089,0.334 -7.009,0.35 -13.999,1.109c-3.831,0.416 -2.262,-9.715 1.046,-9.471c0.292,0.022 0.447,0.455 0.739,0.476Z" style="fill:#c0b8a3;"/><path d="M432.524,481.351c-0.24,0.656 -0.03,1.423 -0.27,2.079c-0.719,1.965 -9.891,6.062 -15.805,6.598c-13.86,1.257 -25.07,-0.763 -24.471,-2.408c0.148,-0.405 0.356,-0.787 0.503,-1.193c26.2,3.16 30.701,-2.831 40.043,-5.076Z" style="fill:#0d0d16;"/><path d="M462.091,150.383c-1.519,-6.297 -2.482,-10.52 0.166,-9.388c1.553,0.664 8.772,24.396 -3.188,11.878c-0.891,-0.932 -5.851,-7.691 -3.96,-1.337c0.143,0.479 1.912,6.424 -0.633,6.213c-2.296,-0.19 -3.171,-13.86 -2.905,-14.198c0.132,-0.169 0.991,-1.261 2.667,0.261c5.848,5.313 5.149,6.762 7.852,6.571Z" style="fill:#321a04;"/><path d="M452.56,535.469c0.242,0.263 0.329,0.059 0.584,0.335c0.107,0.116 0.095,0.112 1.281,1.508c-6.475,4.788 -9.451,-3.459 -10.111,0.096c-0.051,0.273 1.772,4.686 -1.859,9.049c-6.231,7.488 -17.319,-1.891 -19.475,-3.123l-1.238,-2.837c0.092,-0.101 0.23,-0.153 0.323,-0.253c0.515,-0.563 0.598,-0.253 1.348,-0.572c0.877,0.793 8.147,7.371 13.092,6.865c7.372,-0.755 4.741,-10.981 5.372,-11.688c2.956,-3.314 7.497,4.87 10.685,0.619Z" style="fill:#31322f;"/><path d="M282.551,486.738c13.114,-0.474 4.285,13.783 -4.024,10.69c-10.558,-3.93 -2.912,-19.871 1.854,-16.711c2.827,1.874 -3.576,1.308 -4.733,6.819c-1.806,8.603 9.479,9.813 10.738,3.94c0.946,-4.413 -6.71,-0.128 -6.84,-0.189c-0.395,-0.186 -3.685,-2.37 3.006,-4.549Z" style="fill:#36301f;"/><path d="M175.565,196.854c-13.094,-0.492 -3.754,-18.629 3.597,-10.056c0.557,0.65 1.63,2.973 0.982,5.662c-0.921,3.819 -4.099,4.228 -4.578,4.394Z" style="fill:#250f03;"/><path d="M144.26,215.109c-12.325,6.066 -10.94,-13.961 -1.885,-10.209c0.272,0.113 2.897,1.029 3.819,4.674c0.79,3.123 0.258,3.193 -1.934,5.535Z" style="fill:#240e03;"/><path d="M362.401,173.269c0.166,-0.045 2.079,-0.559 2.079,-0.559c3.809,0.194 -1.259,4.711 -4.981,4.72c-1.142,0.003 -3.126,0.008 -6.117,-12.895c-1.63,-7.031 7.794,-5.74 7.805,-5.728c2.15,2.175 -4.673,2.735 -4.847,4.665c-0.399,4.423 4.585,2.009 5.446,2.723c2.234,1.856 -2.959,2.677 -3.078,4.332c-0.225,3.123 0.67,3.711 3.693,2.741Z" style="fill:#2c1903;"/><path d="M197.297,222.051c9.435,-1.514 11.859,7.932 9.408,14.561c-6.861,-6.12 -13.83,-6.119 -7.206,-13.001l-1,-0.622l-1.203,-0.938Z" style="fill:#cba877;"/><path d="M454.695,411.263c0.091,-1.106 -0.223,-1.385 0.82,-1.738c5.371,-1.818 9.396,2.149 12.002,1.022c6.145,-2.658 9.131,5.209 10.182,5.648c4.746,1.986 3.88,5.762 4.065,8.361l-1.279,-0.042c-0.308,-0.351 -0.616,-0.702 -0.924,-1.053c-1.067,-2.979 -0.082,-4.963 -3.085,-4.037c-2.331,0.719 -1.943,-3.089 -3.203,-4.778c-1.92,-2.573 -3.719,-3.45 -4.106,-0.214c-0.224,1.871 -1.054,1.066 -2.691,0.111c-5.362,-3.129 -5.723,-1.916 -11.781,-3.281Z" style="fill:#252420;"/><path d="M267.667,484.445c-0.354,1.286 -7.638,13.249 -0.21,11.86c2.375,-0.444 3.939,-1.073 3.162,1.229c-0.359,1.062 -3.526,4.83 2.734,4.619c1.446,-0.049 3.299,-1.285 3.637,1.282c0.322,2.442 0.604,2.413 0.135,4.79c-4.612,-0.442 -1.781,-3.863 -3.149,-3.988c-0.277,-0.025 -0.212,0.274 -3.477,0.04c-3.8,-1.512 -3.198,-2.287 -3.893,-4.854c-0.14,-0.518 -6.762,-0.826 -5.282,-7.966c0.742,-3.582 3.626,-6.661 4.23,-6.854c0.673,-0.215 1.442,0.059 2.115,-0.156Z" style="fill:#302c24;"/><path d="M475.316,523.785c0.894,10.028 -17.358,8.438 -21.376,5.758c0.496,-0.998 0.445,-1.046 0.536,-1.078c7.62,-2.69 8.494,2.505 16.769,-1.414c6.526,-3.091 -7.082,-2.64 -7.735,-2.619c-1.54,0.051 -1.918,-1.719 -0.145,-2.194c6.783,-1.82 11.144,1.02 11.951,1.546Z" style="fill:#35332d;"/><path d="M408.57,159.462c5.886,7.783 2.563,-9.966 3.208,-10.739c3.409,-4.086 6.88,18.633 -2.259,15.724c-6.547,-2.084 -6.985,-21.146 -3.507,-13.697c0.307,0.658 -0.368,0.837 2.559,8.712Z" style="fill:#301c03;"/><path d="M371.434,170.55c-0.633,-0.896 -7.593,-10.749 -6.753,-11.933c2.156,-3.042 9.298,14.337 8.212,5.954c-0.267,-2.062 -0.189,-9.423 1.646,-9.637c1.486,-0.173 1.585,0.604 1.682,12.567c0.073,8.961 -4.499,3.4 -4.787,3.05Z" style="fill:#2b1904;"/><path d="M513.528,476.434c4.933,7.85 -1.418,9.2 -5.011,8.897c-2.969,-0.25 -3.039,-0.361 -3.187,-0.14c-0.31,0.463 4.038,4.475 0.882,6.986c-0.559,0.444 -0.559,0.291 -4.387,1.038c-7.129,-1.923 2.692,-1.987 2.928,-3.629c0.078,-0.545 -3.376,-6.868 0.759,-6.966c0.567,-0.013 6.83,-0.162 6.762,-2.117c-0.06,-1.716 -8.739,-7.237 -2.768,-6.026c2.247,0.455 2.097,0.687 4.022,1.956Z" style="fill:#31322e;"/><path d="M422.466,527.367c0.574,-6.46 -5.642,-9.831 -5.912,-11.876c-0.396,-2.997 3.676,0.826 3.912,1.048c5.096,4.786 5.153,11.028 4.908,11.93c-1.955,7.18 -16.759,-7.245 -12.882,-9.98c3.102,-2.188 -0.705,6.128 9.975,8.877Z" style="fill:#372f1d;"/><path d="M167.305,144.137c0.08,0.165 1,2.065 1,2.065c-0.775,0.9 -1.154,0.324 -1.835,1.269c-0.92,1.279 0.429,1.97 -1.043,2.923c-14.105,9.136 -14.197,9.497 -14.919,9.017c-0.254,-0.169 0.176,-0.464 -2.136,-3.151c10.041,-5.178 9.882,-5.344 18.933,-12.124Z" style="fill:#706339;"/><path d="M524.509,607.096c-2.959,-0.855 -3.555,-0.548 -4.284,-3.51c-0.408,-1.657 0.172,-4.634 1.396,-5.942c5.176,-5.526 13.209,6.988 2.887,9.452Z" style="fill:#1d1512;"/><path d="M308.245,512.547c1.286,3.461 0.902,3.643 4.014,8.099c4.709,6.743 -8.381,-1.712 -6.767,-10.148c2.395,-12.523 15.044,9.259 10.012,9.073c-1.627,-0.06 -0.986,-4.215 -5.042,-9.031c-2.229,-2.647 -2.218,1.768 -2.217,2.007Z" style="fill:#3d3521;"/><path d="M494.449,499.945c0.313,0.224 4.855,1.997 2.773,6.415c-0.238,0.505 -1.813,3.847 -4.721,5.142c-7.324,3.261 -9.426,0.279 -10,-0.001c2.383,-1.92 9.645,-0.014 12.045,-5.982c2.471,-6.147 -6.641,-0.525 -7.126,-0.225c-2.268,1.399 -3.077,0.005 -2.096,-0.874c4.148,-3.714 5.32,-4.593 9.126,-4.473Z" style="fill:#302c23;"/><path d="M349.613,533.894c-2.065,-3.844 -3.607,-10.154 -6.056,-10.687c-5.115,-1.112 3.273,10.488 3.507,11.032c-3.328,0.791 -3.241,-0.188 -5.225,-2.994c-5.481,-7.753 -0.994,-15.527 5.237,-8.37c5.514,6.333 3.022,10.256 2.537,11.019Z" style="fill:#3c3424;"/><path d="M509.477,593.63c4.074,2.724 4.163,14.262 5.969,5.851c0.04,-0.187 1.69,-8.941 3.912,-6.842c1.165,1.1 -3.052,14.703 -3.761,15.002c-2.731,1.153 -6.919,-8.911 -6.987,-13.067l0.868,-0.944Z" style="fill:#1d1615;"/><path d="M120.516,179.599c2.205,-4.38 3.907,-1.99 18.895,-7.427c5.835,-2.117 12.86,-6.724 14.109,-4.677c0.72,1.18 -0.129,1.078 -1.403,1.637c-11.56,5.075 -16.147,7.029 -28.691,10.041c-1.46,0.325 -1.411,0.288 -2.91,0.427Z" style="fill:#4b3c18;"/><path d="M371.125,528.106c-5.483,5.753 4.316,1.204 7.321,1.498c5.093,0.498 7.411,-4.558 7.225,-1.092c-0.035,0.657 -4.9,4.649 -7.147,3.648c-2.563,-1.142 -2.362,0.556 -5.01,1.38c-9.535,2.967 -7.848,-8.425 -0.004,-9.65c1.175,-0.183 2.289,1.04 0.659,2.138c-1.543,1.039 -1.556,0.877 -3.043,2.079Z" style="fill:#393222;"/><path d="M424.449,158.843c1.463,-0.163 6.301,-1.132 3.962,1.597c-5.382,6.281 -14.917,-4.478 -8.901,-12.933c2.582,-3.629 7.682,-0.893 4.86,0.581c-0.134,0.07 -0.17,-0.385 -1.83,0.474c-0.673,0.348 -5.125,7.566 1.909,10.281Z" style="fill:#2c1801;"/><path d="M290.226,517.455c-0.313,0.521 -3.251,5.402 -7.415,1.663c-3.384,-3.038 -2.705,-15.667 1.623,-16.496c1.462,-0.28 -1.755,7.218 -0.298,12.965c1.675,6.605 5.192,-3.61 7.113,-1.679c0.582,0.584 0.138,0.7 -1.023,3.547Z" style="fill:#2b251f;"/><path d="M455.13,522.764c0.526,-1.27 0.416,-1.25 1.249,-2.343c3.203,-4.197 2.387,-8.769 2.172,-8.966c-2.083,-1.915 -4.081,7.286 -4.235,7.993c-0.986,4.538 -3.895,-1.196 -0.359,-7.676c5.393,-9.881 10.7,1.45 4.908,9.061c-2.661,3.496 -3.337,1.99 -3.736,1.93Z" style="fill:#2e271a;"/><path d="M466.419,301.317c0.431,0.279 0.256,2.836 8.087,0.146c0.867,0.245 4.234,1.196 7.844,8.082c2.817,5.373 -5.271,-3.171 -13.969,-4.65c-0.475,-0.081 -3.435,-0.584 -5.876,-1.335c1.529,-1 1.266,-1.333 3.013,-1.972c0.48,-0.175 0.459,-0.11 0.901,-0.272Z" style="fill:#c2b5a1;"/><path d="M622.193,442.51c0.039,2.716 -0.8,4.79 4.751,12.875c-1.894,0.028 -2.141,0.552 -3.404,-0.926c-3.333,-3.902 -4.087,-7.225 -4.246,-7.926c-1.29,-5.689 5.24,-15.454 5.433,-15.571c5.395,-3.271 -0.853,2.223 -2.534,11.547Z" style="fill:#5a1c08;"/><path d="M526.701,407.197c-1.977,-1.625 -1.981,-1.593 -2.135,-1.752c-7.506,-7.704 5.298,0.262 5.685,0.503c13.608,8.467 -1.55,12.955 -4.418,9.307c-2.835,-3.606 6.339,0.112 6.715,-2.751c0.151,-1.151 -5.328,-4.948 -5.847,-5.308Z" style="fill:#272c29;"/><path d="M310.481,525.74c0.4,-0.01 4.897,-0.127 4.939,0.775c0.084,1.782 -8.166,1.994 -5.881,4.948c0.44,0.569 4.773,1.534 7.871,0.627c2.963,-0.868 3.289,-1.624 3.974,-0.504c0.162,0.264 -0.116,0.664 0.046,0.928c-4.574,3.555 -12.788,5.658 -15.47,-1.712c0.927,-1.931 0.886,-1.89 2.436,-3.375c0.333,-0.278 0.381,-0.103 0.713,-0.381c0.116,-0.097 0.102,-0.097 1.372,-1.306Z" style="fill:#383229;"/><path d="M361.508,602.483c7.236,4.513 7.36,4.37 7.713,5.016c0.88,1.605 -6.164,6.377 -6.801,6.809c-2.788,1.889 -1.639,-4.114 -2.532,-10.815c0.54,-0.337 1.08,-0.673 1.62,-1.01Z" style="fill:#823f34;"/><path d="M399.587,166.908c-5.512,0.907 -4.764,-2.11 -6.348,-10.368c-0.079,-0.413 -1.307,-6.816 1.292,-5.096c1.661,1.099 2.456,11.9 3.917,12.259c0.437,0.107 5.891,-1.699 6.197,0.768c0.218,1.759 -0.79,1.174 -5.057,2.436Z" style="fill:#281402;"/><path d="M400.452,517.763c0.225,3.996 -4.394,8.25 -2.981,9.759c0.503,0.538 2.045,1.322 5.553,-7.347c2.245,-5.548 3.302,2.228 -1.082,7.632c-8.483,10.456 -9.82,-6.83 -1.49,-10.044Z" style="fill:#302a19;"/><path d="M440.411,519.658c-1.895,-0.839 -1.821,-0.863 -3.774,-1.515c-7.114,-2.376 2.751,-3.713 7.48,0.774c8.749,8.302 -12.172,7.552 -12.473,2.576c-0.168,-2.779 10.545,3.736 11.47,0.913c0.381,-1.161 -0.307,-0.972 -2.704,-2.748Z" style="fill:#352b1a;"/><path d="M357.096,539.336c0.721,-0.691 0.263,-1.668 5.444,-2.515c0.311,-0.051 2.978,-0.487 3.875,0.739c1.761,2.407 -8.917,0.957 -4.742,4.775c1.132,1.035 2.704,1.26 2.771,1.306c0.868,0.597 0.779,6.394 6.462,1.355c0.927,0.519 0.918,0.457 1.711,1.23c-2.833,2.27 -2.756,2.369 -3.058,2.45c-4.312,1.16 -4.635,0.617 -7.256,-2.927c-1.714,-2.319 -3.753,-0.841 -5.207,-6.413Z" style="fill:#343630;"/><path d="M264.417,614.504c0.003,0.458 0.04,5.603 -0.102,5.72c-0.751,0.619 -9.244,-4.344 -8.617,-5.681c0.391,-0.833 7.584,-7.404 8.004,-6.314c0.182,0.472 -0.11,0.439 0.715,6.275Z" style="fill:#59575b;"/><path d="M411.167,539.232c-2.794,2.062 -3.811,1.601 -4.857,-1.666c-2.627,-8.202 1.725,-14.722 1.65,-9.113c-0.008,0.583 -0.155,11.624 2.299,6.912c0.655,-1.258 -1.24,-10.225 1.191,-7.812c1.627,1.615 1.446,6.4 1.424,6.969c-0.068,1.79 -1.512,4.361 -1.708,4.711Z" style="fill:#342a1c;"/><path d="M253.573,435.494c-3.339,9.009 -5.608,12.818 -2.075,11.993c1.124,-0.263 5.599,-7.338 5.334,-2.989c-0.222,3.634 -4.871,5.438 -5.457,5.665c-2.19,-0.111 -7.916,-0.709 -1.474,-12.416c1.497,-2.721 1.974,-2.249 3.672,-2.253Z" style="fill:#2a2c27;"/><path d="M346.293,608.543c-0.015,-0.402 -0.183,-4.859 0.215,-5.029c0.689,-0.295 8.022,4.76 8.088,4.942c0.63,1.739 -6.899,7.013 -7.095,7.039c-1.096,0.147 -1.026,-2.978 -1.208,-6.952Z" style="fill:#854336;"/><path d="M306.858,313.102c1.112,0.473 1.182,0.416 1.25,0.647c0.05,0.173 0.036,0.163 0.49,2.195c-4.701,1.617 -4.334,2.435 -9.066,3.864c-6.257,-2.399 -7.424,1.169 -8.502,-0.319c-0.189,-0.261 3.341,-4.899 7.465,-5.013c0.991,-0.027 7.443,0.529 7.95,-0.074c0.293,-0.348 0.119,-0.953 0.412,-1.301Z" style="fill:#ccc3af;"/><path d="M183.392,624.732c-0.311,0.517 -0.623,1.035 -0.934,1.552c-1.809,-0.515 -14.082,-4.005 -21.661,-9.147c-9.332,-6.331 2.55,-1.142 2.767,-1.047c18.247,7.969 18.274,7.881 19.828,8.641Z" style="fill:#28100f;"/><path d="M689.642,276.312c-0.051,-0.038 -1.039,0.301 -1.364,-1.799c-0.238,-1.539 -0.13,-1.571 -1.097,-2.786c-2.395,-3.006 1.635,-2.189 2.225,-4.255c0.965,-3.381 1.543,-3.278 5.073,-3.59c3.38,-0.299 2.748,2.214 1.009,2.449c-3.465,0.47 -2.651,1.703 -2.893,5.187c-0.217,3.131 -0.022,3.585 -2.954,4.794Z" style="fill:#c0c0bd;"/><path d="M319.522,355.808c-9.398,-1.581 -4.277,-11.263 2.019,-7.364c1.028,0.637 2.224,2.507 1.985,4.06c-0.341,2.217 -3.606,3.186 -4.004,3.304Z" style="fill:#fdfaf6;"/><path d="M611.5,432.495c2.685,-0.585 2.04,-1.412 3.418,-3.751c2.773,-4.708 8.767,-5.603 7.5,-3.307c-1.124,2.037 -3.263,0.517 -9.67,13.326c-1.489,-0.557 -1.306,-0.731 -3.098,-2.308c-0.272,-1.506 -0.21,-1.457 -0.127,-2.948c0.659,-0.337 1.319,-0.675 1.978,-1.012Z" style="fill:#c4aba1;"/><path d="M278.433,619.075c-0.694,-0.241 -5.5,-1.912 -7.997,-4.526c-1.116,-1.169 -0.448,-1.372 0.71,-2.425c5.663,-5.151 6.251,-5.255 6.368,-4.636c1.048,5.524 0.939,10.657 0.919,11.587Z" style="fill:#565355;"/><path d="M454.454,611.423c-2.609,0.939 -3.374,0.419 -3.64,-3.001c-0.539,-6.945 -1.8,-14.204 0.664,-14.34c3.001,-0.166 1.701,1.414 1.885,4.434c0.616,10.102 0.918,11.885 1.091,12.907Z" style="fill:#6d362b;"/><path d="M327.271,463.527c-1.298,-3.541 -0.745,-3.614 -0.134,-6.014c0.255,-1 -1.015,-3.508 6.107,-12.245c1.365,-1.674 6.834,-5.169 8.327,-5.071c2.777,0.183 -2.981,3.326 -4.106,4.257c-10.607,8.782 -6.86,13.823 -10.195,19.073Z" style="fill:#64797a;"/><path d="M468.5,342.095c-1.032,-0.194 -2.721,0.126 -4.533,-2.838c-0.151,-0.248 -1.379,-2.256 -0.275,-3.616c4.365,-5.378 14.759,4.385 4.808,6.454Z" style="fill:#fdfaf8;"/><path d="M307.644,477.64c4.535,-7.192 6.999,0.067 6.7,2.852c-0.272,2.536 -0.247,2.471 -0.503,5.02c-0.161,0.572 -0.322,1.143 -0.482,1.715l-0.943,0.456c-3.326,-4.269 0.95,-8.735 -0.998,-9.939c-1.925,-1.191 -1.412,0.567 -3.129,4.658c-1.427,3.4 -2.779,-1.626 -2.85,-1.89c1.181,-1.413 1.199,-1.312 2.204,-2.871Z" style="fill:#22282a;"/><path d="M385.516,156.471c6.832,6.189 0.071,14.502 -2.781,7.938c-0.52,-1.197 -0.988,-4.64 -0.745,-5.836c0.739,-3.622 3.522,-2.102 3.526,-2.102Z" style="fill:#8b7f4d;"/><path d="M438.773,612.087c-0.855,-15.417 -1.088,-15.46 -0.517,-16.666c1.894,-4.006 2.796,0.704 3.583,14.098c0.32,5.44 -2.53,2.783 -3.065,2.568Z" style="fill:#693429;"/><path d="M526.535,451.486c1.102,6.146 1.152,6.096 3.083,11.989c0.566,1.728 -3.923,2.933 -4.709,-1.17c-1.021,-5.334 -1.48,-5.263 -1.25,-10.737c0.103,-2.455 1.705,-2.241 2.876,-0.083Z" style="fill:#9e6220;"/><path d="M480.624,489.521c4.035,-12.921 10.401,0.76 7.56,4.753c-2.886,4.056 -0.613,-7.654 -3.744,-6.954c-1.624,0.363 -1.316,6.948 -1.32,6.954c-0.245,0.353 -2.623,1.52 -2.496,-4.753Z" style="fill:#333323;"/><path d="M442.61,156.301c-0.399,-0.492 -3.301,-4.067 -1.852,-7.703c3.036,-7.62 10.932,8.883 1.852,7.703Z" style="fill:#887c4d;"/><path d="M326.486,523.446c-0.677,-0.36 -5.86,-3.118 -3.654,-8.856c3.513,-9.134 10.084,7.677 6.652,7.055c-1.232,-0.223 -0.806,-0.684 -2.366,-4.961c-1.513,-4.148 -2.248,-0.296 -2.253,-0.115c-0.101,3.597 1.536,3.249 1.621,6.877Z" style="fill:#4b4735;"/><path d="M356.162,529.513c-0.612,0.369 -1.224,0.738 -1.835,1.106c-1.795,-5.983 2.274,-8.796 3.202,-8.973c4.611,-0.878 3.219,3.765 2.97,10.854c-0.007,0.196 -1.677,3.301 -2.259,-0.958c-0.021,-6.373 1.257,-6.193 1.065,-6.7c-0.16,-0.421 -2.797,-2.015 -3.143,4.67Z" style="fill:#3e3a29;"/><path d="M611.259,449.718c0.357,0.472 1.238,0.31 1.595,0.782c0.717,0.949 3.45,11.513 7.911,9.31c0.727,2.317 0.755,2.238 0.808,2.436c-1.346,0.205 -1.42,-0.013 -2.328,0.962c-0.509,0.546 -3.163,1.136 -4.95,-2.643c-3.23,-6.828 -3.08,-9.946 -3.036,-10.846Z" style="fill:#7e5a48;"/><path d="M544.376,596.919c0.285,0.312 0.844,0.265 1.129,0.577c1.221,1.338 -0.675,2.234 -0.854,2.318c-3.201,1.511 -1.065,6.064 -3.836,4.208c-0.678,-0.454 -0.625,-3.205 -1.3,-3.549c-2.16,-1.101 -3.82,-0.659 -2.639,-2.666c0.457,-0.776 2.189,-0.36 2.862,-2.193c1.71,-4.661 2.805,-0.407 2.868,-0.158c0.403,1.589 1.424,1.303 1.769,1.465Z" style="fill:#191112;"/><path d="M253.536,465.598c0.445,-0.202 7.55,-3.426 6.113,-0.011c-0.145,0.344 -7.696,2.271 -5.018,4.78c1.53,1.433 7.957,-1.109 5.464,1.963c-2.506,3.088 -14.522,-0.414 -6.559,-6.731Z" style="fill:#27241e;"/><path d="M496.249,488.344c4.333,-4.852 -1.04,-8.656 -4.644,-5.657c-1.624,1.351 -2.703,-0.703 -1.147,-2.226c6.137,-6.005 16.107,6.083 5.933,9.443l-0.142,-1.561Z" style="fill:#2d291d;"/><path d="M163.667,612.195c-4.438,-2.171 -4.668,-2.528 -4.915,-2.912c-0.121,-0.189 -0.723,-2.386 2.717,-0.694c8.859,4.356 17.558,6.706 15.775,8.63c-0.787,0.85 -1.11,0.656 -13.578,-5.024Z" style="fill:#412a2b;"/><path d="M316.777,488.811c-0.198,-0.574 -1.069,-0.735 -1.267,-1.309c-0.784,-2.272 6.152,-7.973 6.952,-0.998c0.166,1.447 -0.334,3.659 -0.405,3.971c-0.659,2.915 2.2,5.351 -1.552,5.021c-2.927,-0.258 1.938,-16.765 -3.728,-6.684Z" style="fill:#36454e;"/><path d="M432.401,537.893c0.347,-0.07 0.699,0.25 1.046,0.181c4.761,-0.955 -4.584,-7.666 -0.962,-7.684c5.424,-0.027 7.192,12.863 -0.869,9.8c-4.754,-1.806 -3.165,-6.44 -1.447,-4.451c1.03,1.193 0.793,1.355 2.232,2.154Z" style="fill:#322b1a;"/><path d="M434.809,155.454c0.3,3.613 0.756,3.931 -0.126,4.337c-3.475,1.6 -4.598,-13.797 -4.151,-14.264c0.154,-0.161 1.485,-1.55 2.532,1.148c0.333,0.858 1.619,8.074 1.745,8.779Z" style="fill:#271603;"/><path d="M475.668,497.369c-0.724,0.704 -1.449,1.407 -2.173,2.111c-2.376,3.323 -2.657,3.189 -3.651,7.122c-0.195,0.772 -0.742,5.146 -1.562,5.451c-3.785,1.406 0.845,-18.965 7.386,-14.683Z" style="fill:#3a3321;"/><path d="M297.645,503.391c1.099,6.207 -12.314,4.363 -7.317,-6.004c1.544,-3.204 5.805,-2.896 3.451,-0.683c-3.04,2.859 -3.088,9.121 1.959,7.154c0.146,-0.057 0.141,-0.035 1.907,-0.467Z" style="fill:#464230;"/><path d="M163.583,624.596c1.392,-0.008 2.267,-0.013 16.07,6.683c2.67,1.295 1.266,2.6 -0.164,2.413c-1.248,-0.163 -13.98,-6.547 -14.786,-7.416c-0.11,-0.118 -0.083,-0.124 -1.12,-1.68Z" style="fill:#391f22;"/><path d="M534.13,601.51c-0.031,0.983 0.032,1.967 0.001,2.949c-0.078,2.484 -2.739,2.519 -2.785,0.078c-0.185,-9.907 -1.033,-16.886 1.789,-13.702c0.569,0.642 0.507,0.733 0.995,10.675Z" style="fill:#1a1c1a;"/><path d="M458.2,415.131c5.976,-1.543 13.577,6.359 16.245,8.407c6.573,5.045 -1.877,1.231 -2.039,1.138c-2.906,-1.668 -1.922,-3.027 -8.764,-6.457c-2.525,-1.266 -4.918,-1.879 -4.985,-1.932c-0.324,-0.258 -0.133,-0.898 -0.457,-1.156Z" style="fill:#677d79;"/><path d="M589.541,464.539c-1.841,-0.043 -1.879,0.073 -1.985,-0.046c-0.268,-0.304 3.891,-9.221 4.647,-10.275c2.651,-3.698 3.192,-5.705 4.282,-5.868c2.199,-0.331 -0.919,4.745 -1.137,5.101c-0.459,0.747 -0.991,1.447 -1.445,2.196c-2.475,4.077 -2.435,6.386 -4.362,8.892Z" style="fill:#4d1e05;"/><path d="M260.646,458.719c-3.192,0.976 -4.107,1.016 -4.837,-2.271c-1.067,-4.807 6.209,-10.213 4.505,-5.972c-2.076,5.169 -2.678,5.421 -1.807,6.009c1.209,0.815 4.542,-4.948 4.881,-1.96c0.148,1.302 -2.459,3.91 -2.742,4.194Z" style="fill:#464334;"/><path d="M349.613,533.894c-0.849,0.115 -1.699,0.23 -2.548,0.345c-0.234,-0.544 -8.622,-12.144 -3.507,-11.032c2.449,0.532 3.991,6.843 6.056,10.687Z" style="fill:#b9baa7;"/><path d="M266.896,481.278c-0.58,0.283 -0.823,1.052 -1.404,1.335c-0.133,0.065 -4.758,-0.849 -5.151,-3.095c-0.763,-4.362 6.702,-11.557 6.357,-8.167c-0.025,0.248 -2.8,3.932 -3.465,6.068c-0.721,2.315 0.658,1.816 3.662,3.859Z" style="fill:#302d22;"/><path d="M609.649,436.456c1.792,1.577 1.609,1.751 3.098,2.308c-0.035,9.421 -0.078,10.169 -1.521,10.04c-0.2,-0.018 -0.177,-0.451 -0.377,-0.468c-0.249,-1.729 0.439,-12.333 -2.26,-3.764c-0.117,-0.197 -1.741,-0.208 -1.08,-3.07c0.04,-0.172 0.219,-0.949 0.759,-2.071c0.114,-0.236 0.965,-2.007 1.38,-2.975Z" style="fill:#816051;"/><path d="M475.668,497.369c3.547,5.511 -0.759,12.61 -1.5,13.96c-0.955,0.39 -1.911,0.78 -2.866,1.17c0.406,-0.961 4.694,-11.119 2.999,-12.688c-0.213,-0.197 -0.593,-0.134 -0.807,-0.331c0.724,-0.704 1.449,-1.407 2.173,-2.111Z" style="fill:#353120;"/><path d="M283.5,367.511c-2.073,0.181 -7.405,1.09 -6.953,-0.995c0.745,-3.436 14.785,-2.388 11.704,0.695c-0.646,0.647 -0.747,0.315 -4.752,0.3Z" style="fill:#030913;"/><path d="M378.408,142.3c0.527,-0.508 0.564,-1.397 1.091,-1.904c0.232,-0.224 0.535,0.716 3.841,-1.222c3.457,-2.026 2.476,-3.061 2.804,-3.026c0.633,0.068 0.765,1.098 1.349,1.352c0.359,0.156 0.753,-0.29 1.144,-0.269c2.764,0.154 -2.738,3.202 -2.711,3.613c0.041,0.623 0.727,1.147 0.631,1.764c-0.143,0.924 -5.561,0.038 -8.149,-0.308Z" style="fill:#7e793d;"/><path d="M325.499,535.501c-1.624,-2.938 -2.123,-3.344 0.08,-5.927c1.26,-1.477 3.602,-1.703 2.352,1.051c-2.852,6.286 3.093,1.185 4.764,1.406c0.72,0.095 1.841,2.016 -4.418,4.164c-1.462,-0.187 -1.426,-0.138 -2.778,-0.694Z" style="fill:#413b2c;"/><path d="M288.504,455.555c0.826,0.065 8.401,0.666 3.557,9.723c-1.242,2.322 -1.818,1.826 -2.631,1.254c1.21,-6.872 2.661,-8.852 -0.883,-8.696c-1.452,-0.266 -1.561,-0.159 -1.562,-0.286c-0.001,-0.39 0.493,-0.672 0.492,-1.063c0.342,-0.31 0.685,-0.62 1.027,-0.931Z" style="fill:#2d383d;"/><path d="M301.39,518.166l-0.746,2.313c-1.103,-0.394 -8.697,-0.632 -5.346,-8.09c1.516,-3.373 5.157,-3.262 3.464,-0.783c-0.233,0.342 -1.982,2.902 -1.49,4.955c0.343,1.431 1.148,1.417 4.118,1.605Z" style="fill:#3c3726;"/><path d="M383.449,540.846c-6.011,-2.919 0.124,-8.261 1.041,-8.266c2.113,-0.011 -0.895,3.82 -0.929,3.94c-1.466,5.144 5.216,-2.847 5.597,0.025c0.425,3.2 -5.146,4.199 -5.709,4.3Z" style="fill:#3c3928;"/><path d="M431.44,505.416c-0.005,0.34 -0.407,0.594 -0.412,0.935c-0.026,1.726 1.443,1.897 1.475,1.939c-0.66,0.545 -0.756,0.331 -1.227,1.013c-2.355,3.406 -4.203,-1.731 -6.254,-5.501c-1.548,-2.846 2.21,-3.934 3.411,-0.28c0.572,1.738 0.372,1.923 1.979,2.889c0.342,-0.332 0.685,-0.663 1.027,-0.995Z" style="fill:#393b37;"/><path d="M306.776,469.353c-0.791,0.657 -1.582,1.315 -2.373,1.972c-2.372,2.44 -2.643,2.3 -2.901,2.167c-0.421,-0.217 -0.49,-0.874 -0.912,-1.092c-0.213,-0.173 -1.084,-0.88 -3.317,-0.881c1.007,-3.715 0.576,-6.478 2.434,-4.287c0.111,0.131 1.106,3.072 2.853,2.381c2.099,-0.83 2.253,-1.715 4.214,-0.26Z" style="fill:#1e262c;"/><path d="M301.39,518.166c0.024,0.006 1.88,-0.629 2.009,1.349c0.337,5.156 2.854,3.324 7.082,6.225c-1.27,1.21 -1.256,1.209 -1.372,1.306c-0.332,0.278 -0.38,0.102 -0.713,0.381c-0.412,-0.172 -0.462,-0.842 -0.873,-1.014c-2.351,-0.981 -4.817,1.236 -6.879,-5.935l0.746,-2.313Z" style="fill:#383227;"/><path d="M479.51,512.79l0.952,0.095c1.265,4.155 -2.032,5.126 -3.957,6.636c-3.059,0.812 -3.095,1.052 -6.157,0.103c-5.749,-1.782 2.728,-0.048 7.244,-4.062c0.292,-0.502 0.278,-0.446 1.919,-2.771Z" style="fill:#2c291f;"/><path d="M493.396,344.133c-3.4,0.871 -4.001,2.131 -4.742,0.291c-1.257,-3.123 12.968,-5.81 10.594,-2.075c-0.263,0.413 -0.376,0.591 -5.852,1.785Z" style="fill:#00091a;"/><path d="M174.474,193.76c-2.118,-0.952 -2.534,-1.013 -2.345,-3.285c0.294,-3.526 3.188,-5.18 4.895,-1.784c1.88,3.741 -2.115,4.939 -2.55,5.069Z" style="fill:#7a6642;"/><path d="M502.648,495.026c0.053,0.118 1.639,0.759 -0.244,2.368c-2.83,2.418 -5.292,1.267 -5.714,1.071c-0.448,-0.392 -0.192,-0.733 -2.386,-1.485c-0.195,-0.067 -2.085,-0.715 -2.124,-1.455c-0.162,-3.093 4.473,2.046 9.083,-0.433c0.627,-0.337 0.604,-0.029 1.384,-0.066Z" style="fill:#363328;"/><path d="M493.499,349.037c0.558,0.078 6.352,0.883 6.12,3.486c-0.153,1.714 -4.602,0.393 -8.327,-0.609c-0.28,-0.075 -3.024,-2.354 2.207,-2.877Z" style="fill:#000410;"/><path d="M291.777,321.788c2.586,-0.445 2.624,-0.504 2.784,-0.347c0.367,0.358 0.039,1.125 0.405,1.482c-6.921,4.93 -11.466,10.011 -8.994,4.735c1.013,-2.162 4.034,-4.89 4.443,-5.259c0.454,-0.204 0.908,-0.407 1.361,-0.611Z" style="fill:#b1a699;"/><path d="M414.085,542.089c0.219,-0.063 0.234,-0.45 0.453,-0.513c3.283,-0.944 4.303,0.887 4.484,1.211c1.225,2.197 1.133,2.38 3.457,3.294c1.87,0.389 1.933,0.276 2.015,0.419c0.42,0.733 -3.415,5.562 -6.636,-1.214c-0.718,-1.509 -1.694,-0.776 -1.851,-0.848c-0.641,-0.783 -1.281,-1.566 -1.922,-2.349Z" style="fill:#3d403d;"/><path d="M630.623,458.296c0.584,0.34 1.168,0.68 1.751,1.02c-1.098,1.653 -0.79,2.091 -2.777,2.491c-4.065,0.82 -4.074,1.793 -8.025,0.438c-0.054,-0.198 -0.081,-0.119 -0.808,-2.436c1.528,-0.602 1.539,-0.393 2.992,0.303c0.903,0.433 0.897,0.116 3.93,-0.725c0.15,0.028 1.872,0.353 1.872,0.353c0.51,-0.313 0.555,-1.131 1.065,-1.445Z" style="fill:#935c42;"/><path d="M284.62,372.768c0.282,-0.112 2.79,-1.103 3.704,-0.819c0.234,0.073 1.628,1.126 -0.066,2.187c-0.608,0.381 -7.22,4.52 -7.778,4.475c-4.333,-0.35 3.66,-5.531 4.141,-5.843Z" style="fill:#05101e;"/><path d="M141.504,207.494c5.002,4.444 -1.61,8.5 -3.167,4.08c-0.083,-0.237 -0.572,-1.623 -0.004,-3.136c0.686,-1.829 1.245,-1.18 3.171,-0.944Z" style="fill:#6b583b;"/><path d="M323.161,463.687c2.11,1.071 2.9,1.804 3.117,2.006c2.222,2.96 3.493,3.943 0.266,5.788c-4.826,-3.798 -3.985,-5.322 -3.383,-7.794Z" style="fill:#99a498;"/><path d="M345.562,170.586c-0.658,0.203 -2.767,2.489 -3.743,-3.115c-0.373,-2.143 2.783,-3.327 4.376,-1.66c1.856,1.942 -0.378,4.485 -0.633,4.774Z" style="fill:#8f7f51;"/><path d="M306.776,469.353c2.698,4.903 -0.609,5.358 -0.022,7.059c0.165,0.478 0.725,0.751 0.89,1.229c-1.005,1.559 -1.023,1.458 -2.204,2.871c-3.334,-6.621 1.988,-7.505 0.075,-9.486c-0.267,-0.276 -0.845,0.575 -1.112,0.299c0.791,-0.657 1.582,-1.315 2.373,-1.972Z" style="fill:#43555d;"/><path d="M608.914,457.324c0.939,1.029 2.765,2.467 2.73,2.751c-0.233,1.908 -0.4,1.904 -0.077,2.384c0.803,1.194 1.104,1.487 -0.088,2.249c-0.285,0.182 -0.711,-0.37 -0.996,-0.188c-6.886,-4.756 -1.863,-6.899 -1.569,-7.196Z" style="fill:#33110a;"/><path d="M452.428,531.673c0.795,0.688 0.798,0.605 1.547,1.338c2.617,2.562 1.309,3.008 0.45,4.302c-1.187,-1.397 -1.174,-1.392 -1.281,-1.508c-0.255,-0.276 -0.341,-0.072 -0.584,-0.335c-4.438,-3.682 -4.512,-3.602 -4.734,-4.048c-0.164,-0.33 0.08,-2.019 4.602,0.252Z" style="fill:#2c261d;"/><path d="M445.552,509.787c2.187,0.356 2.579,-0.083 3.581,1.871c0.516,1.006 0.06,2.876 -0.819,3.516c-1.356,0.988 -1.263,-0.131 -1.523,-1.793c-0.247,-1.579 -2.683,-0.827 -3.258,-0.962c-0.258,-0.061 -1.908,-1.31 2.019,-2.632Z" style="fill:#332e1d;"/><path d="M461.8,295.272c1.035,0.827 0.907,0.88 1.657,1.967c-5.385,3.426 -7.238,4.155 -7.913,4.42l-1.182,-1.268c3.764,-2.55 3.936,-2.236 7.438,-5.119Z" style="fill:#574c39;"/><path d="M609.455,425.228c0.36,0.067 0.673,-0.44 1.033,-0.374c1.368,0.253 0.676,1.272 -0.261,4.606c-0.584,0.388 0.183,0.766 -0.398,1.152c-0.621,0.412 -0.659,-0.293 -1.3,-0.024c-0.463,0.194 -0.637,0.836 -1.101,1.03l-0.921,-0.123c-0.323,-3.676 0.575,-3.472 2.947,-6.267Z" style="fill:#ab8465;"/><path d="M474.313,512.852c2.579,-0.493 2.537,-0.493 5.197,-0.062c-1.64,2.325 -1.626,2.269 -1.919,2.771c-0.12,-0.06 -0.72,-1.737 -2.877,-0.697c-0.306,0.147 -3.199,1.543 -4.059,1.238c-1.972,-0.699 0.994,-2.201 1.178,-2.294c1.331,-0.269 1.271,-0.311 2.479,-0.956Z" style="fill:#65654d;"/><path d="M356.162,529.513c0.345,-6.685 2.983,-5.091 3.143,-4.67c0.192,0.508 -1.085,0.327 -1.065,6.7c-1.251,1.408 -1.339,2.242 -2.875,1.164c0.627,-1.53 0.899,-1.42 0.797,-3.193Z" style="fill:#b0ae9d;"/><path d="M288.547,457.835c3.544,-0.155 2.092,1.824 0.883,8.696c-0.285,-0.488 -1.061,-0.544 -1.346,-1.032c-0.802,-1.373 0.061,-2.545 0.463,-7.665Z" style="fill:#96a8ac;"/><path d="M628.87,439.635c0.527,1.193 0.551,1.129 1.635,1.899c-2.208,2.789 -1.534,3.071 -2.876,6.346l-1.79,-0.416c0.276,-6.29 1.796,-5.677 2.861,-6.943c0.193,-0.23 -0.024,-0.655 0.17,-0.885Z" style="fill:#c05a16;"/><path d="M270.498,504.276c3.266,0.235 3.2,-0.065 3.477,-0.04c1.368,0.125 -1.463,3.546 3.149,3.988c-0.527,1.933 -0.592,2.888 -2.385,1.919c-2.107,-1.138 -2.013,-2.559 -1.995,-2.836c0.029,-0.431 0.463,-0.944 0.193,-1.28c-0.073,-0.091 -0.201,0.62 -1.438,-0.268c-0.766,-0.55 -0.239,-0.936 -1.002,-1.484Z" style="fill:#627a87;"/><path d="M446.13,140.106c-3.181,2.416 -3.375,0.642 -3.373,0.37c0.01,-1.566 2.963,-4.014 3.697,-4.159c4.224,-0.833 -0.11,3.572 -0.323,3.788Z" style="fill:#2e1d03;"/><path d="M221.463,121.564c0.261,-0.417 0.865,-0.535 1.126,-0.951c0.204,-0.325 0.028,-0.785 0.181,-1.137c0.137,-0.315 0.728,-0.456 0.659,-0.793c-0.061,-0.296 -0.726,0.021 -0.873,-0.243c-1.397,-2.514 6.459,-2.706 3.188,1.191c-0.722,0.86 -4.007,2.501 -4.021,2.495c-0.19,-0.079 -0.069,-0.482 -0.259,-0.561Z" style="fill:#736d37;"/><path d="M473.574,299.455c0.156,0.353 0.384,0.061 0.531,0.393c0.054,0.122 0.03,0.12 0.401,1.614c-7.831,2.69 -7.656,0.133 -8.087,-0.146c0.388,-0.119 1.541,-0.645 4.024,-0.96c1.624,-0.206 1.511,-0.435 3.131,-0.901Z" style="fill:#5b4c38;"/><path d="M370.907,544.996c2.347,-3.106 3.37,-2.888 3.736,-2.811c0.199,0.042 0.954,0.098 1.086,3.886c-0.618,0.232 -1.236,0.464 -1.854,0.696l-1.257,-0.541c-0.792,-0.773 -0.784,-0.71 -1.711,-1.23Z" style="fill:#787a6e;"/><path d="M523.512,603.487c-0.105,-0.323 -1.268,-3.884 0.968,-4.131c1.239,-0.136 2.498,1.293 2.026,3.146c-0.473,1.856 -1.103,1.201 -2.993,0.985Z" style="fill:#f6f6f1;"/><path d="M268.338,472.207c0.197,-0.05 -0.03,-0.538 0.167,-0.588c0.623,-0.159 1.284,0.054 1.927,0.054c6.048,0.002 4.736,3.155 4.245,3.147c-1.408,-0.022 -0.862,-1.478 -2.248,-1.233c-0.605,0.107 -0.774,1.116 -1.378,1.222c-1.047,-1.615 -1.128,-1.476 -2.713,-2.603Z" style="fill:#7f7f6d;"/><path d="M268.338,472.207c1.585,1.127 1.666,0.987 2.713,2.603c0.16,0.138 3.132,2.695 0.438,2.599c-1.081,-0.039 -2.948,-1.31 -3.45,-2.748c-0.543,-1.556 0.281,-2.311 0.299,-2.454Z" style="fill:#4a4735;"/><path d="M496.249,488.344l0.142,1.561c-0.464,-0.072 -6.805,-1.062 -3.886,-4.398c1.296,-1.481 2.206,-0.97 2.2,0.983c-0.005,1.374 0.322,1.252 1.544,1.855Z" style="fill:#55533f;"/><path d="M149.042,269.093c3.775,-3.011 3.423,-3.311 3.764,-3.546c0.163,-0.113 5.303,-0.772 0.827,2.34c-1.75,1.217 -2.013,3.233 -4.591,1.206Z" style="fill:#594a28;"/><path d="M630.802,449.346l1.798,1.159c-0.146,5.586 -1.427,5.105 -2.128,5.933c0.11,-2.364 0.22,-4.728 0.329,-7.092Z" style="fill:#c36d28;"/><path d="M460.431,340.832c1.669,1.64 2.967,2.255 0.874,3.329c-0.995,0.511 -6.608,-0.785 -0.874,-3.329Z" style="fill:#f7ece6;"/><path d="M311.63,357.882c-2.193,-0.417 -3.204,-0.426 -2.331,-2.515c0.243,-0.581 1.884,-1.205 2.936,-0.466c1.619,1.137 0.764,1.547 -0.605,2.981Z" style="fill:#f5e8e2;"/><path d="M265.64,460.538c-0.103,0.24 -1.759,4.101 -2.383,2.221c-0.603,-1.815 0.957,-4.327 1.177,-4.406c1.699,-0.605 1.575,0.386 1.206,2.185Z" style="fill:#737863;"/><path d="M269.079,465.521c-2.028,5.832 -3.762,-2.01 -1.524,-3.115c0.249,-0.123 0.435,-0.059 1.524,3.115Z" style="fill:#8f9a84;"/><path d="M630.802,449.346c0.214,-5.771 2.468,-4.234 2.736,-3.958c0.579,0.598 -0.469,2.304 -0.576,2.478c-0.657,1.07 -0.335,1.091 -0.362,2.639l-1.798,-1.159Z" style="fill:#b65916;"/><path d="M297.274,471.519c2.233,0.001 3.103,0.708 3.317,0.881c-0.26,0.375 -1.472,-0.28 -1.373,1.984c0.003,0.079 0.038,0.868 -0.012,0.986c-0.135,0.317 -2.85,1.595 -1.931,-3.851Z" style="fill:#495354;"/><path d="M295.28,468.805c0.004,0.366 0.053,4.39 -0.727,4.515c-1.276,0.206 -2.199,-5.24 -0.001,-5.094c0.309,0.02 0.418,0.559 0.728,0.579Z" style="fill:#293c46;"/><path d="M459.575,430.884c-5.274,0.863 -1.134,-2.446 -0.086,-2.54c0.203,-0.018 4.742,0.518 0.086,2.54Z" style="fill:#ddc7ba;"/><path d="M513.593,426.03c0.225,-0.085 2.562,-0.964 2.948,-0.599c0.152,0.143 0.086,0.173 1.157,2.339c-0.975,0.659 -0.924,0.619 -1.977,1.151c-0.709,-0.964 -1.418,-1.927 -2.127,-2.891Z" style="fill:#613826;"/><path d="M450.292,295.675c0.795,0.374 1.589,0.749 2.384,1.123c-1.373,1.635 -1.327,1.584 -2.555,3.255c-1.381,-1.98 -0.723,-2.146 0.17,-4.378Z" style="fill:#483f32;"/><path d="M610.227,429.461c0.347,1.636 0.439,1.552 1.274,3.034c-0.659,0.337 -1.319,0.675 -1.978,1.012c-0.595,-0.453 -1.19,-0.907 -1.786,-1.36l-0.308,-0.529c0.463,-0.194 0.637,-0.836 1.101,-1.03c0.641,-0.269 0.679,0.436 1.3,0.024c0.581,-0.386 -0.186,-0.764 0.398,-1.152Z" style="fill:#6d4e3a;"/><path d="M295.608,498.864c1.599,0.493 2.505,0.035 2.129,1.676c-0.408,1.778 -5.883,1.15 -2.129,-1.676Z" style="fill:#3c3a29;"/><path d="M628.87,439.635c0.338,-0.267 0.303,-0.855 0.64,-1.122c0.514,-0.408 2.05,0.007 2.204,0.877c0.242,1.369 -0.176,1.257 -1.209,2.143c-1.084,-0.77 -1.108,-0.705 -1.635,-1.899Z" style="fill:#651503;"/><path d="M627.486,457.316l1.044,0.015l0.96,0.315l1.133,0.651c-0.51,0.313 -0.555,1.131 -1.065,1.445c0,0 -1.722,-0.325 -1.872,-0.353c-0.067,-0.69 -0.134,-1.381 -0.201,-2.071Z" style="fill:#712709;"/><path d="M474.168,511.329c0.049,0.508 0.097,1.015 0.146,1.523c-1.208,0.644 -1.148,0.686 -2.479,0.956l-0.532,-1.309c0.955,-0.39 1.911,-0.78 2.866,-1.17Z" style="fill:#96967f;"/><path d="M356.162,529.513c0.102,1.773 -0.17,1.663 -0.797,3.193c-0.621,-1.008 -0.612,-0.958 -1.038,-2.087c0.612,-0.369 1.224,-0.738 1.835,-1.106Z" style="fill:#767762;"/><path d="M154.72,278.894c2.561,-1.507 2.461,-1.899 2.648,-1.729c0.366,0.332 -0.036,1.238 -0.079,1.335c-0.3,0.677 -0.654,0.32 -0.977,1.048c-0.531,-0.218 -1.062,-0.436 -1.592,-0.654Z" style="fill:#54352d;"/><path d="M361.508,602.483c-0.54,0.337 -1.08,0.673 -1.62,1.01c-0.129,-0.663 -0.642,-0.325 -0.772,-0.993c-0.016,-0.084 -0.145,-0.749 0.384,-1.004c0,0 1.847,0.908 2.008,0.987Z" style="fill:#68362c;"/><path d="M625.84,447.464l1.79,0.416c-1.071,1.541 -0.995,1.637 -1.155,1.661c-1.333,0.201 -0.233,-0.76 -0.636,-2.077Z" style="fill:#de7725;"/><path d="M454.362,300.39l1.182,1.268c-0.028,-0.002 -3.427,1.7 -1.182,-1.268Z" style="fill:#837d67;"/><path d="M611.43,466.79c0.527,-0.33 0.632,-1.132 1.16,-1.462c0.222,-0.139 0.675,0.245 0.722,0.285c1.167,0.99 -0.582,0.364 -1.882,1.176Z" style="fill:#472419;"/><path d="M417.608,497.622c0.778,-0.055 0.131,-0.988 0.935,-1.044c0.098,-0.007 0.456,-0.032 0.804,0.922c0.113,0.309 -0.222,0.672 -0.11,0.982c-0.543,-0.287 -1.086,-0.573 -1.629,-0.86Z" style="fill:#8f8f93;"/><path d="M389.594,223.588c0.306,0.511 0.612,1.023 0.918,1.534c-1.498,-0.513 -1.55,-0.433 -1.616,-0.553c-0,-0 0.642,-0.903 0.698,-0.981Z" style="fill:#5c413d;"/><path d="M631.551,409.513c0.307,0.621 0.615,1.241 0.922,1.862c-1.224,-0.026 -2.027,0.402 -1.653,-0.798c0.128,-0.411 0.603,-0.653 0.731,-1.064Z" style="fill:#b3b1ab;"/><path d="M423.411,539.673c-0.75,0.318 -0.833,0.008 -1.348,0.572c-0.092,0.101 -0.23,0.153 -0.323,0.253c0.055,-0.121 0.683,-1.507 0.683,-1.507c0.4,0.014 0.588,0.668 0.988,0.682Z" style="fill:#6b6e5c;"/><path d="M448.624,360.094c-0.481,-0.288 -1.2,0.348 -1.682,0.06c-1.576,-0.943 0.025,-1 0.106,-1.003c0.983,-0.035 0.563,0.979 1.576,0.943Z" style="fill:#b2aec3;"/><path d="M183.392,624.732c0.018,1.393 0.119,1.434 0.019,1.501c-0.264,0.178 -0.69,-0.127 -0.953,0.052c0.311,-0.517 0.623,-1.035 0.934,-1.552Z" style="fill:#5e4142;"/><path d="M606.508,431.496l0.921,0.123l0.308,0.529c-0.41,-0.217 -0.819,-0.435 -1.229,-0.652Z" style="fill:#6d4933;"/></g></svg>